<?xml version="1.0" encoding="UTF-8" standalone="no"?>
<!DOCTYPE svg PUBLIC "-//W3C//DTD SVG 1.1//EN"
 "http://www.w3.org/Graphics/SVG/1.1/DTD/svg11.dtd">
<!-- Generated by graphviz version 12.2.1 (20241206.2353)
 -->
<!-- Pages: 1 -->
<svg width="413pt" height="396pt"
 viewBox="0.00 0.00 413.32 395.56" xmlns="http://www.w3.org/2000/svg" xmlns:xlink="http://www.w3.org/1999/xlink">
<g id="graph0" class="graph" transform="scale(1 1) rotate(0) translate(4 391.56)">
<polygon fill="white" stroke="none" points="-4,4 -4,-391.56 409.32,-391.56 409.32,4 -4,4"/>
<!-- jqt -->
<g id="node1" class="node">
<title>jqt</title>
<ellipse fill="none" stroke="black" cx="243" cy="-230.72" rx="27" ry="18"/>
<text text-anchor="middle" x="243" y="-225.67" font-family="Times New Roman,serif" font-size="14.00">jqt</text>
</g>
<!-- rhn -->
<g id="node2" class="node">
<title>rhn</title>
<ellipse fill="none" stroke="black" cx="298.16" cy="-277" rx="27" ry="18"/>
<text text-anchor="middle" x="298.16" y="-271.95" font-family="Times New Roman,serif" font-size="14.00">rhn</text>
</g>
<!-- jqt&#45;&gt;rhn -->
<g id="edge1" class="edge">
<title>jqt&#45;&gt;rhn</title>
<path fill="none" stroke="black" d="M260.15,-245.11C264.13,-248.45 268.45,-252.07 272.7,-255.64"/>
<polygon fill="black" stroke="black" points="270.14,-258.06 280.05,-261.8 274.64,-252.7 270.14,-258.06"/>
<text text-anchor="middle" x="257.43" y="-253.58" font-family="Times New Roman,serif" font-size="14.00">rhn</text>
</g>
<!-- xhk -->
<g id="node3" class="node">
<title>xhk</title>
<ellipse fill="none" stroke="black" cx="230.5" cy="-301.62" rx="27" ry="18"/>
<text text-anchor="middle" x="230.5" y="-296.57" font-family="Times New Roman,serif" font-size="14.00">xhk</text>
</g>
<!-- jqt&#45;&gt;xhk -->
<g id="edge2" class="edge">
<title>jqt&#45;&gt;xhk</title>
<path fill="none" stroke="black" d="M239.78,-248.98C238.52,-256.15 237.03,-264.55 235.63,-272.52"/>
<polygon fill="black" stroke="black" points="232.22,-271.73 233.93,-282.18 239.11,-272.94 232.22,-271.73"/>
<text text-anchor="middle" x="227.58" y="-263.95" font-family="Times New Roman,serif" font-size="14.00">xhk</text>
</g>
<!-- nvd -->
<g id="node4" class="node">
<title>nvd</title>
<ellipse fill="none" stroke="black" cx="187.84" cy="-184.44" rx="27" ry="18"/>
<text text-anchor="middle" x="187.84" y="-179.39" font-family="Times New Roman,serif" font-size="14.00">nvd</text>
</g>
<!-- jqt&#45;&gt;nvd -->
<g id="edge3" class="edge">
<title>jqt&#45;&gt;nvd</title>
<path fill="none" stroke="black" d="M225.85,-216.33C221.87,-212.99 217.55,-209.36 213.3,-205.79"/>
<polygon fill="black" stroke="black" points="215.86,-203.38 205.95,-199.63 211.36,-208.74 215.86,-203.38"/>
<text text-anchor="middle" x="229.7" y="-197.76" font-family="Times New Roman,serif" font-size="14.00">nvd</text>
</g>
<!-- rhn&#45;&gt;xhk -->
<g id="edge12" class="edge">
<title>rhn&#45;&gt;xhk</title>
<path fill="none" stroke="black" d="M274.11,-285.75C271.22,-286.8 268.22,-287.89 265.22,-288.99"/>
<polygon fill="black" stroke="black" points="264.09,-285.67 255.89,-292.38 266.48,-292.25 264.09,-285.67"/>
<text text-anchor="middle" x="259.54" y="-274.07" font-family="Times New Roman,serif" font-size="14.00">xhk</text>
</g>
<!-- hfx -->
<g id="node9" class="node">
<title>hfx</title>
<ellipse fill="none" stroke="black" cx="378.32" cy="-279.97" rx="27" ry="18"/>
<text text-anchor="middle" x="378.32" y="-274.92" font-family="Times New Roman,serif" font-size="14.00">hfx</text>
</g>
<!-- rhn&#45;&gt;hfx -->
<g id="edge14" class="edge">
<title>rhn&#45;&gt;hfx</title>
<path fill="none" stroke="black" d="M325.29,-278C329.94,-278.18 334.85,-278.36 339.73,-278.54"/>
<polygon fill="black" stroke="black" points="339.3,-282.03 349.42,-278.9 339.56,-275.03 339.3,-282.03"/>
<text text-anchor="middle" x="341.51" y="-281.47" font-family="Times New Roman,serif" font-size="14.00">hfx</text>
</g>
<!-- bvb -->
<g id="node13" class="node">
<title>bvb</title>
<ellipse fill="none" stroke="black" cx="315" cy="-355.43" rx="27" ry="18"/>
<text text-anchor="middle" x="315" y="-350.38" font-family="Times New Roman,serif" font-size="14.00">bvb</text>
</g>
<!-- rhn&#45;&gt;bvb -->
<g id="edge13" class="edge">
<title>rhn&#45;&gt;bvb</title>
<path fill="none" stroke="black" d="M302.06,-295.19C304.04,-304.39 306.49,-315.79 308.72,-326.19"/>
<polygon fill="black" stroke="black" points="305.27,-326.81 310.8,-335.86 312.12,-325.34 305.27,-326.81"/>
<text text-anchor="middle" x="295.27" y="-313.89" font-family="Times New Roman,serif" font-size="14.00">bvb</text>
</g>
<!-- xhk&#45;&gt;hfx -->
<g id="edge7" class="edge">
<title>xhk&#45;&gt;hfx</title>
<path fill="none" stroke="black" d="M257.27,-297.7C280.5,-294.3 314.39,-289.33 340.41,-285.52"/>
<polygon fill="black" stroke="black" points="340.86,-288.99 350.25,-284.08 339.85,-282.07 340.86,-288.99"/>
<text text-anchor="middle" x="289.84" y="-294.81" font-family="Times New Roman,serif" font-size="14.00">hfx</text>
</g>
<!-- lhk -->
<g id="node12" class="node">
<title>lhk</title>
<ellipse fill="none" stroke="black" cx="107.68" cy="-279.97" rx="27" ry="18"/>
<text text-anchor="middle" x="107.68" y="-274.92" font-family="Times New Roman,serif" font-size="14.00">lhk</text>
</g>
<!-- nvd&#45;&gt;lhk -->
<g id="edge25" class="edge">
<title>nvd&#45;&gt;lhk</title>
<path fill="none" stroke="black" d="M174.61,-200.21C161.96,-215.29 142.71,-238.22 128.1,-255.64"/>
<polygon fill="black" stroke="black" points="125.66,-253.1 121.91,-263.01 131.02,-257.6 125.66,-253.1"/>
<text text-anchor="middle" x="142.73" y="-231.13" font-family="Times New Roman,serif" font-size="14.00">lhk</text>
</g>
<!-- rsh -->
<g id="node5" class="node">
<title>rsh</title>
<ellipse fill="none" stroke="black" cx="77.53" cy="-91.88" rx="27" ry="18"/>
<text text-anchor="middle" x="77.53" y="-86.83" font-family="Times New Roman,serif" font-size="14.00">rsh</text>
</g>
<!-- frs -->
<g id="node6" class="node">
<title>frs</title>
<ellipse fill="none" stroke="black" cx="77.53" cy="-369.56" rx="27" ry="18"/>
<text text-anchor="middle" x="77.53" y="-364.51" font-family="Times New Roman,serif" font-size="14.00">frs</text>
</g>
<!-- rsh&#45;&gt;frs -->
<g id="edge4" class="edge">
<title>rsh&#45;&gt;frs</title>
<path fill="none" stroke="black" d="M77.53,-110.1C77.53,-157.07 77.53,-282.62 77.53,-340.1"/>
<polygon fill="black" stroke="black" points="74.03,-339.76 77.53,-349.76 81.03,-339.76 74.03,-339.76"/>
<text text-anchor="middle" x="70.41" y="-228.3" font-family="Times New Roman,serif" font-size="14.00">frs</text>
</g>
<!-- pzl -->
<g id="node7" class="node">
<title>pzl</title>
<ellipse fill="none" stroke="black" cx="132.69" cy="-138.16" rx="27" ry="18"/>
<text text-anchor="middle" x="132.69" y="-133.11" font-family="Times New Roman,serif" font-size="14.00">pzl</text>
</g>
<!-- rsh&#45;&gt;pzl -->
<g id="edge5" class="edge">
<title>rsh&#45;&gt;pzl</title>
<path fill="none" stroke="black" d="M94.68,-106.27C98.66,-109.61 102.98,-113.23 107.24,-116.8"/>
<polygon fill="black" stroke="black" points="104.67,-119.22 114.58,-122.96 109.17,-113.85 104.67,-119.22"/>
<text text-anchor="middle" x="92.71" y="-114.73" font-family="Times New Roman,serif" font-size="14.00">pzl</text>
</g>
<!-- lsr -->
<g id="node8" class="node">
<title>lsr</title>
<ellipse fill="none" stroke="black" cx="27" cy="-230.72" rx="27" ry="18"/>
<text text-anchor="middle" x="27" y="-225.67" font-family="Times New Roman,serif" font-size="14.00">lsr</text>
</g>
<!-- rsh&#45;&gt;lsr -->
<g id="edge6" class="edge">
<title>rsh&#45;&gt;lsr</title>
<path fill="none" stroke="black" d="M71.03,-109.74C62.5,-133.17 47.44,-174.56 37.34,-202.31"/>
<polygon fill="black" stroke="black" points="34.13,-200.9 34,-211.5 40.7,-203.3 34.13,-200.9"/>
<text text-anchor="middle" x="47.44" y="-159.23" font-family="Times New Roman,serif" font-size="14.00">lsr</text>
</g>
<!-- frs&#45;&gt;lsr -->
<g id="edge33" class="edge">
<title>frs&#45;&gt;lsr</title>
<path fill="none" stroke="black" d="M71.03,-351.69C62.5,-328.26 47.44,-286.88 37.34,-259.13"/>
<polygon fill="black" stroke="black" points="40.7,-258.14 34,-249.94 34.13,-260.53 40.7,-258.14"/>
<text text-anchor="middle" x="47.44" y="-308.61" font-family="Times New Roman,serif" font-size="14.00">lsr</text>
</g>
<!-- qnr -->
<g id="node11" class="node">
<title>qnr</title>
<ellipse fill="none" stroke="black" cx="315" cy="-106.01" rx="27" ry="18"/>
<text text-anchor="middle" x="315" y="-100.96" font-family="Times New Roman,serif" font-size="14.00">qnr</text>
</g>
<!-- frs&#45;&gt;qnr -->
<g id="edge31" class="edge">
<title>frs&#45;&gt;qnr</title>
<path fill="none" stroke="black" d="M91.68,-353.86C131.6,-309.55 245.38,-183.28 293.3,-130.09"/>
<polygon fill="black" stroke="black" points="295.82,-132.52 299.92,-122.75 290.62,-127.84 295.82,-132.52"/>
<text text-anchor="middle" x="183.49" y="-245.18" font-family="Times New Roman,serif" font-size="14.00">qnr</text>
</g>
<!-- frs&#45;&gt;lhk -->
<g id="edge32" class="edge">
<title>frs&#45;&gt;lhk</title>
<path fill="none" stroke="black" d="M83.49,-351.86C87.63,-339.55 93.25,-322.86 98.03,-308.66"/>
<polygon fill="black" stroke="black" points="101.28,-309.97 101.15,-299.37 94.65,-307.74 101.28,-309.97"/>
<text text-anchor="middle" x="82.13" y="-333.46" font-family="Times New Roman,serif" font-size="14.00">lhk</text>
</g>
<!-- pzl&#45;&gt;nvd -->
<g id="edge19" class="edge">
<title>pzl&#45;&gt;nvd</title>
<path fill="none" stroke="black" d="M149.84,-152.55C153.82,-155.89 158.14,-159.51 162.39,-163.08"/>
<polygon fill="black" stroke="black" points="159.83,-165.5 169.74,-169.24 164.33,-160.13 159.83,-165.5"/>
<text text-anchor="middle" x="145.99" y="-161.01" font-family="Times New Roman,serif" font-size="14.00">nvd</text>
</g>
<!-- pzl&#45;&gt;lsr -->
<g id="edge17" class="edge">
<title>pzl&#45;&gt;lsr</title>
<path fill="none" stroke="black" d="M116.18,-152.62C99.06,-167.61 72.08,-191.24 52.28,-208.58"/>
<polygon fill="black" stroke="black" points="50.1,-205.83 44.89,-215.05 54.71,-211.1 50.1,-205.83"/>
<text text-anchor="middle" x="77.48" y="-183.8" font-family="Times New Roman,serif" font-size="14.00">lsr</text>
</g>
<!-- pzl&#45;&gt;hfx -->
<g id="edge18" class="edge">
<title>pzl&#45;&gt;hfx</title>
<path fill="none" stroke="black" d="M153.21,-150C196.46,-174.98 297.19,-233.13 347.94,-262.43"/>
<polygon fill="black" stroke="black" points="345.96,-265.33 356.37,-267.3 349.46,-259.27 345.96,-265.33"/>
<text text-anchor="middle" x="259.57" y="-192.92" font-family="Times New Roman,serif" font-size="14.00">hfx</text>
</g>
<!-- lsr&#45;&gt;lhk -->
<g id="edge26" class="edge">
<title>lsr&#45;&gt;lhk</title>
<path fill="none" stroke="black" d="M47.36,-243.15C56.53,-248.75 67.55,-255.47 77.65,-261.63"/>
<polygon fill="black" stroke="black" points="75.68,-264.53 86.04,-266.76 79.33,-258.56 75.68,-264.53"/>
<text text-anchor="middle" x="53.88" y="-255.59" font-family="Times New Roman,serif" font-size="14.00">lhk</text>
</g>
<!-- cmg -->
<g id="node10" class="node">
<title>cmg</title>
<ellipse fill="none" stroke="black" cx="217.99" cy="-88.91" rx="27.3" ry="18"/>
<text text-anchor="middle" x="217.99" y="-83.86" font-family="Times New Roman,serif" font-size="14.00">cmg</text>
</g>
<!-- cmg&#45;&gt;nvd -->
<g id="edge9" class="edge">
<title>cmg&#45;&gt;nvd</title>
<path fill="none" stroke="black" d="M212.32,-106.87C207.99,-120.62 201.92,-139.84 196.91,-155.71"/>
<polygon fill="black" stroke="black" points="193.62,-154.52 193.95,-165.11 200.29,-156.62 193.62,-154.52"/>
<text text-anchor="middle" x="194.49" y="-134.49" font-family="Times New Roman,serif" font-size="14.00">nvd</text>
</g>
<!-- cmg&#45;&gt;qnr -->
<g id="edge8" class="edge">
<title>cmg&#45;&gt;qnr</title>
<path fill="none" stroke="black" d="M244.76,-93.63C254.91,-95.42 266.67,-97.49 277.63,-99.42"/>
<polygon fill="black" stroke="black" points="276.71,-102.81 287.17,-101.1 277.93,-95.92 276.71,-102.81"/>
<text text-anchor="middle" x="270.19" y="-99.72" font-family="Times New Roman,serif" font-size="14.00">qnr</text>
</g>
<!-- cmg&#45;&gt;lhk -->
<g id="edge10" class="edge">
<title>cmg&#45;&gt;lhk</title>
<path fill="none" stroke="black" d="M208.21,-105.86C189.04,-139.06 146.42,-212.88 123.31,-252.91"/>
<polygon fill="black" stroke="black" points="120.34,-251.06 118.37,-261.47 126.4,-254.56 120.34,-251.06"/>
<text text-anchor="middle" x="157.13" y="-182.59" font-family="Times New Roman,serif" font-size="14.00">lhk</text>
</g>
<!-- cmg&#45;&gt;bvb -->
<g id="edge11" class="edge">
<title>cmg&#45;&gt;bvb</title>
<path fill="none" stroke="black" d="M224.51,-106.81C241.01,-152.14 284.54,-271.75 304.61,-326.87"/>
<polygon fill="black" stroke="black" points="301.29,-327.98 308,-336.18 307.86,-325.59 301.29,-327.98"/>
<text text-anchor="middle" x="274.68" y="-203.54" font-family="Times New Roman,serif" font-size="14.00">bvb</text>
</g>
<!-- qnr&#45;&gt;nvd -->
<g id="edge20" class="edge">
<title>qnr&#45;&gt;nvd</title>
<path fill="none" stroke="black" d="M294.85,-118.44C274.02,-131.29 241.27,-151.49 217.48,-166.16"/>
<polygon fill="black" stroke="black" points="215.86,-163.05 209.19,-171.27 219.54,-169 215.86,-163.05"/>
<text text-anchor="middle" x="246.04" y="-145.5" font-family="Times New Roman,serif" font-size="14.00">nvd</text>
</g>
<!-- bvb&#45;&gt;xhk -->
<g id="edge15" class="edge">
<title>bvb&#45;&gt;xhk</title>
<path fill="none" stroke="black" d="M295.4,-342.95C284.81,-336.21 271.53,-327.75 259.74,-320.24"/>
<polygon fill="black" stroke="black" points="261.87,-317.45 251.56,-315.03 258.12,-323.36 261.87,-317.45"/>
<text text-anchor="middle" x="267.45" y="-334.8" font-family="Times New Roman,serif" font-size="14.00">xhk</text>
</g>
<!-- bvb&#45;&gt;hfx -->
<g id="edge16" class="edge">
<title>bvb&#45;&gt;hfx</title>
<path fill="none" stroke="black" d="M328.43,-339.42C336.91,-329.32 348.03,-316.06 357.62,-304.63"/>
<polygon fill="black" stroke="black" points="360.19,-307.02 363.93,-297.11 354.83,-302.52 360.19,-307.02"/>
<text text-anchor="middle" x="334.03" y="-308.73" font-family="Times New Roman,serif" font-size="14.00">hfx</text>
</g>
<!-- ntq -->
<g id="node14" class="node">
<title>ntq</title>
<ellipse fill="none" stroke="black" cx="310.66" cy="-206.09" rx="27" ry="18"/>
<text text-anchor="middle" x="310.66" y="-201.04" font-family="Times New Roman,serif" font-size="14.00">ntq</text>
</g>
<!-- ntq&#45;&gt;jqt -->
<g id="edge21" class="edge">
<title>ntq&#45;&gt;jqt</title>
<path fill="none" stroke="black" d="M286.61,-214.84C283.72,-215.9 280.73,-216.99 277.72,-218.08"/>
<polygon fill="black" stroke="black" points="276.59,-214.77 268.39,-221.48 278.98,-221.35 276.59,-214.77"/>
<text text-anchor="middle" x="275.04" y="-219.66" font-family="Times New Roman,serif" font-size="14.00">jqt</text>
</g>
<!-- ntq&#45;&gt;xhk -->
<g id="edge24" class="edge">
<title>ntq&#45;&gt;xhk</title>
<path fill="none" stroke="black" d="M297.42,-221.87C284.77,-236.94 265.53,-259.88 250.91,-277.29"/>
<polygon fill="black" stroke="black" points="248.47,-274.76 244.73,-284.67 253.84,-279.26 248.47,-274.76"/>
<text text-anchor="middle" x="284.29" y="-236.28" font-family="Times New Roman,serif" font-size="14.00">xhk</text>
</g>
<!-- ntq&#45;&gt;hfx -->
<g id="edge22" class="edge">
<title>ntq&#45;&gt;hfx</title>
<path fill="none" stroke="black" d="M325.01,-221.76C334.16,-231.75 346.19,-244.89 356.51,-256.16"/>
<polygon fill="black" stroke="black" points="353.63,-258.2 362.97,-263.21 358.79,-253.47 353.63,-258.2"/>
<text text-anchor="middle" x="331.76" y="-242.16" font-family="Times New Roman,serif" font-size="14.00">hfx</text>
</g>
<!-- ntq&#45;&gt;bvb -->
<g id="edge23" class="edge">
<title>ntq&#45;&gt;bvb</title>
<path fill="none" stroke="black" d="M311.19,-224.4C311.93,-249.71 313.26,-295.65 314.14,-325.85"/>
<polygon fill="black" stroke="black" points="310.63,-325.56 314.42,-335.45 317.63,-325.35 310.63,-325.56"/>
<text text-anchor="middle" x="322.79" y="-278.33" font-family="Times New Roman,serif" font-size="14.00">bvb</text>
</g>
<!-- rzs -->
<g id="node15" class="node">
<title>rzs</title>
<ellipse fill="none" stroke="black" cx="205.49" cy="-18" rx="27" ry="18"/>
<text text-anchor="middle" x="205.49" y="-12.95" font-family="Times New Roman,serif" font-size="14.00">rzs</text>
</g>
<!-- rzs&#45;&gt;rsh -->
<g id="edge30" class="edge">
<title>rzs&#45;&gt;rsh</title>
<path fill="none" stroke="black" d="M184.65,-30.03C163.92,-42 131.89,-60.5 108.25,-74.14"/>
<polygon fill="black" stroke="black" points="106.59,-71.06 99.68,-79.09 110.09,-77.12 106.59,-71.06"/>
<text text-anchor="middle" x="138.2" y="-55.29" font-family="Times New Roman,serif" font-size="14.00">rsh</text>
</g>
<!-- rzs&#45;&gt;lsr -->
<g id="edge29" class="edge">
<title>rzs&#45;&gt;lsr</title>
<path fill="none" stroke="black" d="M192.08,-33.99C161.12,-70.88 84.52,-162.17 47.58,-206.19"/>
<polygon fill="black" stroke="black" points="45.05,-203.76 41.3,-213.68 50.41,-208.26 45.05,-203.76"/>
<text text-anchor="middle" x="113.08" y="-106.79" font-family="Times New Roman,serif" font-size="14.00">lsr</text>
</g>
<!-- rzs&#45;&gt;cmg -->
<g id="edge28" class="edge">
<title>rzs&#45;&gt;cmg</title>
<path fill="none" stroke="black" d="M208.71,-36.26C209.98,-43.43 211.46,-51.83 212.86,-59.8"/>
<polygon fill="black" stroke="black" points="209.38,-60.22 214.57,-69.46 216.28,-59.01 209.38,-60.22"/>
<text text-anchor="middle" x="198.79" y="-51.23" font-family="Times New Roman,serif" font-size="14.00">cmg</text>
</g>
<!-- rzs&#45;&gt;qnr -->
<g id="edge27" class="edge">
<title>rzs&#45;&gt;qnr</title>
<path fill="none" stroke="black" d="M223.09,-32.14C240.81,-46.38 268.36,-68.53 288.68,-84.86"/>
<polygon fill="black" stroke="black" points="286.28,-87.42 296.27,-90.96 290.67,-81.96 286.28,-87.42"/>
<text text-anchor="middle" x="246.88" y="-45.2" font-family="Times New Roman,serif" font-size="14.00">qnr</text>
</g>
</g>
</svg>
