<?xml version="1.0" encoding="UTF-8" standalone="no"?>
<!DOCTYPE svg PUBLIC "-//W3C//DTD SVG 1.1//EN"
 "http://www.w3.org/Graphics/SVG/1.1/DTD/svg11.dtd">
<!-- Generated by graphviz version 12.2.1 (20241206.2353)
 -->
<!-- Pages: 1 -->
<svg width="702pt" height="487pt"
 viewBox="0.00 0.00 701.86 486.50" xmlns="http://www.w3.org/2000/svg" xmlns:xlink="http://www.w3.org/1999/xlink">
<g id="graph0" class="graph" transform="scale(1 1) rotate(0) translate(4 482.5)">
<polygon fill="white" stroke="none" points="-4,4 -4,-482.5 697.86,-482.5 697.86,4 -4,4"/>
<!-- jqt -->
<g id="node1" class="node">
<title>jqt</title>
<ellipse fill="none" stroke="black" cx="511.61" cy="-372" rx="27" ry="18"/>
<text text-anchor="middle" x="511.61" y="-366.95" font-family="Times New Roman,serif" font-size="14.00">jqt</text>
</g>
<!-- rhn -->
<g id="node2" class="node">
<title>rhn</title>
<ellipse fill="none" stroke="black" cx="511.61" cy="-283.5" rx="27" ry="18"/>
<text text-anchor="middle" x="511.61" y="-278.45" font-family="Times New Roman,serif" font-size="14.00">rhn</text>
</g>
<!-- jqt&#45;&gt;rhn -->
<g id="edge1" class="edge">
<title>jqt&#45;&gt;rhn</title>
<path fill="none" stroke="black" d="M509.23,-353.59C508.57,-347.98 507.94,-341.74 507.61,-336 507.2,-328.68 507.2,-326.82 507.61,-319.5 507.73,-317.44 507.89,-315.31 508.07,-313.17"/>
<polygon fill="black" stroke="black" points="511.53,-313.72 509.07,-303.42 504.57,-313.01 511.53,-313.72"/>
<text text-anchor="middle" x="516.61" y="-322.7" font-family="Times New Roman,serif" font-size="14.00">rhn</text>
</g>
<!-- xhk -->
<g id="node3" class="node">
<title>xhk</title>
<ellipse fill="none" stroke="black" cx="587.61" cy="-106.5" rx="27" ry="18"/>
<text text-anchor="middle" x="587.61" y="-101.45" font-family="Times New Roman,serif" font-size="14.00">xhk</text>
</g>
<!-- jqt&#45;&gt;xhk -->
<g id="edge2" class="edge">
<title>jqt&#45;&gt;xhk</title>
<path fill="none" stroke="black" d="M523.53,-355.52C543.54,-328.44 583.13,-269.9 597.61,-213 604.16,-187.28 600.15,-157.04 595.41,-135.54"/>
<polygon fill="black" stroke="black" points="598.87,-134.95 593.11,-126.06 592.06,-136.6 598.87,-134.95"/>
<text text-anchor="middle" x="601.8" y="-234.2" font-family="Times New Roman,serif" font-size="14.00">xhk</text>
</g>
<!-- nvd -->
<g id="node4" class="node">
<title>nvd</title>
<ellipse fill="none" stroke="black" cx="237.61" cy="-106.5" rx="27" ry="18"/>
<text text-anchor="middle" x="237.61" y="-101.45" font-family="Times New Roman,serif" font-size="14.00">nvd</text>
</g>
<!-- jqt&#45;&gt;nvd -->
<g id="edge3" class="edge">
<title>jqt&#45;&gt;nvd</title>
<path fill="none" stroke="black" d="M500.14,-355.42C480.04,-328.6 436.51,-272.6 393.61,-231 351.82,-190.46 297.43,-149.77 265.15,-126.69"/>
<polygon fill="black" stroke="black" points="267.3,-123.93 257.12,-120.99 263.25,-129.64 267.3,-123.93"/>
<text text-anchor="middle" x="419.9" y="-234.2" font-family="Times New Roman,serif" font-size="14.00">nvd</text>
</g>
<!-- rhn&#45;&gt;xhk -->
<g id="edge12" class="edge">
<title>rhn&#45;&gt;xhk</title>
<path fill="none" stroke="black" d="M526.31,-268.29C532.12,-262.22 538.6,-254.84 543.61,-247.5 566.98,-213.29 578.41,-166.06 583.65,-136.15"/>
<polygon fill="black" stroke="black" points="587.09,-136.78 585.23,-126.35 580.18,-135.66 587.09,-136.78"/>
<text text-anchor="middle" x="583.97" y="-189.95" font-family="Times New Roman,serif" font-size="14.00">xhk</text>
</g>
<!-- hfx -->
<g id="node9" class="node">
<title>hfx</title>
<ellipse fill="none" stroke="black" cx="469.61" cy="-18" rx="27" ry="18"/>
<text text-anchor="middle" x="469.61" y="-12.95" font-family="Times New Roman,serif" font-size="14.00">hfx</text>
</g>
<!-- rhn&#45;&gt;hfx -->
<g id="edge14" class="edge">
<title>rhn&#45;&gt;hfx</title>
<path fill="none" stroke="black" d="M504.87,-265.65C499.59,-251.76 492.51,-231.4 488.61,-213 476.35,-155.04 471.97,-85.64 470.43,-47.54"/>
<polygon fill="black" stroke="black" points="473.94,-47.7 470.08,-37.84 466.95,-47.96 473.94,-47.7"/>
<text text-anchor="middle" x="488.48" y="-145.7" font-family="Times New Roman,serif" font-size="14.00">hfx</text>
</g>
<!-- bvb -->
<g id="node13" class="node">
<title>bvb</title>
<ellipse fill="none" stroke="black" cx="524.61" cy="-195" rx="27" ry="18"/>
<text text-anchor="middle" x="524.61" y="-189.95" font-family="Times New Roman,serif" font-size="14.00">bvb</text>
</g>
<!-- rhn&#45;&gt;bvb -->
<g id="edge13" class="edge">
<title>rhn&#45;&gt;bvb</title>
<path fill="none" stroke="black" d="M514.18,-265.41C515.93,-253.76 518.3,-238.05 520.33,-224.52"/>
<polygon fill="black" stroke="black" points="523.76,-225.26 521.78,-214.85 516.83,-224.22 523.76,-225.26"/>
<text text-anchor="middle" x="529.4" y="-234.2" font-family="Times New Roman,serif" font-size="14.00">bvb</text>
</g>
<!-- xhk&#45;&gt;hfx -->
<g id="edge7" class="edge">
<title>xhk&#45;&gt;hfx</title>
<path fill="none" stroke="black" d="M573.36,-91.03C562.25,-80.17 546.16,-65.28 530.61,-54 521.23,-47.19 510.41,-40.61 500.51,-35.03"/>
<polygon fill="black" stroke="black" points="502.41,-32.08 491.96,-30.34 499.04,-38.22 502.41,-32.08"/>
<text text-anchor="middle" x="559.38" y="-57.2" font-family="Times New Roman,serif" font-size="14.00">hfx</text>
</g>
<!-- lhk -->
<g id="node12" class="node">
<title>lhk</title>
<ellipse fill="none" stroke="black" cx="105.61" cy="-18" rx="27" ry="18"/>
<text text-anchor="middle" x="105.61" y="-12.95" font-family="Times New Roman,serif" font-size="14.00">lhk</text>
</g>
<!-- nvd&#45;&gt;lhk -->
<g id="edge25" class="edge">
<title>nvd&#45;&gt;lhk</title>
<path fill="none" stroke="black" d="M218.7,-93.11C196.55,-78.59 159.63,-54.4 134.03,-37.62"/>
<polygon fill="black" stroke="black" points="136.04,-34.75 125.76,-32.2 132.2,-40.61 136.04,-34.75"/>
<text text-anchor="middle" x="192.06" y="-57.2" font-family="Times New Roman,serif" font-size="14.00">lhk</text>
</g>
<!-- rsh -->
<g id="node5" class="node">
<title>rsh</title>
<ellipse fill="none" stroke="black" cx="105.61" cy="-372" rx="27" ry="18"/>
<text text-anchor="middle" x="105.61" y="-366.95" font-family="Times New Roman,serif" font-size="14.00">rsh</text>
</g>
<!-- frs -->
<g id="node6" class="node">
<title>frs</title>
<ellipse fill="none" stroke="black" cx="69.61" cy="-283.5" rx="27" ry="18"/>
<text text-anchor="middle" x="69.61" y="-278.45" font-family="Times New Roman,serif" font-size="14.00">frs</text>
</g>
<!-- rsh&#45;&gt;frs -->
<g id="edge4" class="edge">
<title>rsh&#45;&gt;frs</title>
<path fill="none" stroke="black" d="M98.67,-354.32C93.64,-342.24 86.73,-325.63 80.91,-311.64"/>
<polygon fill="black" stroke="black" points="84.19,-310.41 77.12,-302.52 77.73,-313.1 84.19,-310.41"/>
<text text-anchor="middle" x="97.96" y="-322.7" font-family="Times New Roman,serif" font-size="14.00">frs</text>
</g>
<!-- pzl -->
<g id="node7" class="node">
<title>pzl</title>
<ellipse fill="none" stroke="black" cx="141.61" cy="-283.5" rx="27" ry="18"/>
<text text-anchor="middle" x="141.61" y="-278.45" font-family="Times New Roman,serif" font-size="14.00">pzl</text>
</g>
<!-- rsh&#45;&gt;pzl -->
<g id="edge5" class="edge">
<title>rsh&#45;&gt;pzl</title>
<path fill="none" stroke="black" d="M112.56,-354.32C117.59,-342.24 124.5,-325.63 130.32,-311.64"/>
<polygon fill="black" stroke="black" points="133.5,-313.1 134.11,-302.52 127.04,-310.41 133.5,-313.1"/>
<text text-anchor="middle" x="135.09" y="-322.7" font-family="Times New Roman,serif" font-size="14.00">pzl</text>
</g>
<!-- lsr -->
<g id="node8" class="node">
<title>lsr</title>
<ellipse fill="none" stroke="black" cx="28.61" cy="-195" rx="27" ry="18"/>
<text text-anchor="middle" x="28.61" y="-189.95" font-family="Times New Roman,serif" font-size="14.00">lsr</text>
</g>
<!-- rsh&#45;&gt;lsr -->
<g id="edge6" class="edge">
<title>rsh&#45;&gt;lsr</title>
<path fill="none" stroke="black" d="M84.11,-360.67C63.38,-349.38 33.27,-329.14 20.11,-301.5 8.47,-277.03 13.06,-245.73 19.05,-223.6"/>
<polygon fill="black" stroke="black" points="22.38,-224.69 21.89,-214.1 15.67,-222.68 22.38,-224.69"/>
<text text-anchor="middle" x="26.86" y="-278.45" font-family="Times New Roman,serif" font-size="14.00">lsr</text>
</g>
<!-- frs&#45;&gt;lsr -->
<g id="edge33" class="edge">
<title>frs&#45;&gt;lsr</title>
<path fill="none" stroke="black" d="M50.31,-270.56C42.57,-264.66 34.46,-256.8 30.11,-247.5 26.79,-240.4 25.57,-232.12 25.4,-224.31"/>
<polygon fill="black" stroke="black" points="28.89,-224.65 25.75,-214.53 21.89,-224.39 28.89,-224.65"/>
<text text-anchor="middle" x="36.86" y="-234.2" font-family="Times New Roman,serif" font-size="14.00">lsr</text>
</g>
<!-- qnr -->
<g id="node11" class="node">
<title>qnr</title>
<ellipse fill="none" stroke="black" cx="237.61" cy="-195" rx="27" ry="18"/>
<text text-anchor="middle" x="237.61" y="-189.95" font-family="Times New Roman,serif" font-size="14.00">qnr</text>
</g>
<!-- frs&#45;&gt;qnr -->
<g id="edge31" class="edge">
<title>frs&#45;&gt;qnr</title>
<path fill="none" stroke="black" d="M90.55,-271.72C119.81,-256.66 173.11,-229.21 206.87,-211.83"/>
<polygon fill="black" stroke="black" points="208.04,-215.16 215.33,-207.47 204.84,-208.94 208.04,-215.16"/>
<text text-anchor="middle" x="177.66" y="-234.2" font-family="Times New Roman,serif" font-size="14.00">qnr</text>
</g>
<!-- frs&#45;&gt;lhk -->
<g id="edge32" class="edge">
<title>frs&#45;&gt;lhk</title>
<path fill="none" stroke="black" d="M75.66,-265.59C77.5,-259.9 79.36,-253.48 80.61,-247.5 88.48,-210 98.61,-100.17 103.19,-47.64"/>
<polygon fill="black" stroke="black" points="106.65,-48.24 104.02,-37.97 99.67,-47.64 106.65,-48.24"/>
<text text-anchor="middle" x="102.82" y="-145.7" font-family="Times New Roman,serif" font-size="14.00">lhk</text>
</g>
<!-- pzl&#45;&gt;nvd -->
<g id="edge19" class="edge">
<title>pzl&#45;&gt;nvd</title>
<path fill="none" stroke="black" d="M138.98,-265.38C138.04,-255.15 137.99,-242.04 141.61,-231 155.27,-189.41 189.8,-151.23 213.49,-128.65"/>
<polygon fill="black" stroke="black" points="215.61,-131.46 220.56,-122.09 210.85,-126.33 215.61,-131.46"/>
<text text-anchor="middle" x="180.65" y="-189.95" font-family="Times New Roman,serif" font-size="14.00">nvd</text>
</g>
<!-- pzl&#45;&gt;lsr -->
<g id="edge17" class="edge">
<title>pzl&#45;&gt;lsr</title>
<path fill="none" stroke="black" d="M124.45,-269.36C105.95,-255.2 76.28,-232.49 54.85,-216.08"/>
<polygon fill="black" stroke="black" points="57.21,-213.48 47.14,-210.18 52.95,-219.04 57.21,-213.48"/>
<text text-anchor="middle" x="101.99" y="-234.2" font-family="Times New Roman,serif" font-size="14.00">lsr</text>
</g>
<!-- pzl&#45;&gt;hfx -->
<g id="edge18" class="edge">
<title>pzl&#45;&gt;hfx</title>
<path fill="none" stroke="black" d="M160.33,-270.47C167.8,-264.55 175.58,-256.7 179.61,-247.5 182.56,-240.78 183.4,-237.28 179.61,-231 170.8,-216.35 154.43,-227.65 145.61,-213 137.36,-199.29 141.16,-192.37 145.61,-177 158.57,-132.29 164.01,-115.93 201.61,-88.5 271.44,-37.57 375.39,-23.9 431.08,-20.27"/>
<polygon fill="black" stroke="black" points="431.23,-23.77 441.02,-19.71 430.84,-16.78 431.23,-23.77"/>
<text text-anchor="middle" x="165.59" y="-145.7" font-family="Times New Roman,serif" font-size="14.00">hfx</text>
</g>
<!-- lsr&#45;&gt;lhk -->
<g id="edge26" class="edge">
<title>lsr&#45;&gt;lhk</title>
<path fill="none" stroke="black" d="M31.15,-176.72C35.89,-148.87 48.11,-93.22 74.61,-54 77.32,-49.99 80.45,-45.95 83.66,-42.11"/>
<polygon fill="black" stroke="black" points="86.15,-44.58 90.12,-34.76 80.89,-39.96 86.15,-44.58"/>
<text text-anchor="middle" x="64.37" y="-101.45" font-family="Times New Roman,serif" font-size="14.00">lhk</text>
</g>
<!-- cmg -->
<g id="node10" class="node">
<title>cmg</title>
<ellipse fill="none" stroke="black" cx="300.61" cy="-283.5" rx="27.3" ry="18"/>
<text text-anchor="middle" x="300.61" y="-278.45" font-family="Times New Roman,serif" font-size="14.00">cmg</text>
</g>
<!-- cmg&#45;&gt;nvd -->
<g id="edge9" class="edge">
<title>cmg&#45;&gt;nvd</title>
<path fill="none" stroke="black" d="M298.06,-265.34C293.54,-238.13 282.55,-183.94 261.61,-142.5 259.92,-139.15 257.95,-135.74 255.88,-132.43"/>
<polygon fill="black" stroke="black" points="258.86,-130.59 250.38,-124.23 253.04,-134.49 258.86,-130.59"/>
<text text-anchor="middle" x="297.01" y="-189.95" font-family="Times New Roman,serif" font-size="14.00">nvd</text>
</g>
<!-- cmg&#45;&gt;qnr -->
<g id="edge8" class="edge">
<title>cmg&#45;&gt;qnr</title>
<path fill="none" stroke="black" d="M286.23,-268.08C280.46,-261.97 273.93,-254.63 268.61,-247.5 262.73,-239.62 256.98,-230.57 252.06,-222.27"/>
<polygon fill="black" stroke="black" points="255.1,-220.54 247.08,-213.62 249.04,-224.03 255.1,-220.54"/>
<text text-anchor="middle" x="277.61" y="-234.2" font-family="Times New Roman,serif" font-size="14.00">qnr</text>
</g>
<!-- cmg&#45;&gt;lhk -->
<g id="edge10" class="edge">
<title>cmg&#45;&gt;lhk</title>
<path fill="none" stroke="black" d="M304.31,-265.46C305.47,-259.77 306.69,-253.38 307.61,-247.5 310.02,-232.25 310.72,-228.41 311.61,-213 314.95,-155.24 313.32,-130.58 273.61,-88.5 238.57,-51.36 180.74,-33.41 142.9,-25.22"/>
<polygon fill="black" stroke="black" points="143.83,-21.84 133.34,-23.29 142.44,-28.7 143.83,-21.84"/>
<text text-anchor="middle" x="320" y="-145.7" font-family="Times New Roman,serif" font-size="14.00">lhk</text>
</g>
<!-- cmg&#45;&gt;bvb -->
<g id="edge11" class="edge">
<title>cmg&#45;&gt;bvb</title>
<path fill="none" stroke="black" d="M326.87,-277.99C354.78,-272.69 399.87,-262.63 436.61,-247.5 457.96,-238.71 480.39,-225.51 497.27,-214.68"/>
<polygon fill="black" stroke="black" points="498.8,-217.86 505.24,-209.45 494.96,-212 498.8,-217.86"/>
<text text-anchor="middle" x="479.39" y="-234.2" font-family="Times New Roman,serif" font-size="14.00">bvb</text>
</g>
<!-- qnr&#45;&gt;nvd -->
<g id="edge20" class="edge">
<title>qnr&#45;&gt;nvd</title>
<path fill="none" stroke="black" d="M237.61,-176.91C237.61,-165.26 237.61,-149.55 237.61,-136.02"/>
<polygon fill="black" stroke="black" points="241.11,-136.36 237.61,-126.36 234.11,-136.36 241.11,-136.36"/>
<text text-anchor="middle" x="247.74" y="-145.7" font-family="Times New Roman,serif" font-size="14.00">nvd</text>
</g>
<!-- bvb&#45;&gt;xhk -->
<g id="edge15" class="edge">
<title>bvb&#45;&gt;xhk</title>
<path fill="none" stroke="black" d="M532.38,-177.55C537.66,-167.09 545.15,-153.49 553.36,-142.5 556.63,-138.13 560.41,-133.76 564.24,-129.65"/>
<polygon fill="black" stroke="black" points="566.47,-132.37 570.96,-122.78 561.47,-127.48 566.47,-132.37"/>
<text text-anchor="middle" x="563.49" y="-145.7" font-family="Times New Roman,serif" font-size="14.00">xhk</text>
</g>
<!-- bvb&#45;&gt;hfx -->
<g id="edge16" class="edge">
<title>bvb&#45;&gt;hfx</title>
<path fill="none" stroke="black" d="M520.21,-177.03C513.2,-150.52 498.75,-97.81 483.61,-54 482.73,-51.44 481.77,-48.8 480.77,-46.16"/>
<polygon fill="black" stroke="black" points="484.1,-45.05 477.19,-37.02 477.58,-47.61 484.1,-45.05"/>
<text text-anchor="middle" x="514.45" y="-101.45" font-family="Times New Roman,serif" font-size="14.00">hfx</text>
</g>
<!-- ntq -->
<g id="node14" class="node">
<title>ntq</title>
<ellipse fill="none" stroke="black" cx="549.61" cy="-460.5" rx="27" ry="18"/>
<text text-anchor="middle" x="549.61" y="-455.45" font-family="Times New Roman,serif" font-size="14.00">ntq</text>
</g>
<!-- ntq&#45;&gt;jqt -->
<g id="edge21" class="edge">
<title>ntq&#45;&gt;jqt</title>
<path fill="none" stroke="black" d="M542.29,-442.82C536.98,-430.74 529.68,-414.13 523.54,-400.14"/>
<polygon fill="black" stroke="black" points="526.75,-398.76 519.53,-391.01 520.35,-401.58 526.75,-398.76"/>
<text text-anchor="middle" x="541.14" y="-411.2" font-family="Times New Roman,serif" font-size="14.00">jqt</text>
</g>
<!-- ntq&#45;&gt;xhk -->
<g id="edge24" class="edge">
<title>ntq&#45;&gt;xhk</title>
<path fill="none" stroke="black" d="M575.01,-453.89C611.28,-444.21 673.61,-420.64 673.61,-373 673.61,-373 673.61,-373 673.61,-194 673.61,-161.99 643.63,-137.62 619.07,-123.03"/>
<polygon fill="black" stroke="black" points="621.07,-120.14 610.64,-118.3 617.65,-126.25 621.07,-120.14"/>
<text text-anchor="middle" x="683.74" y="-278.45" font-family="Times New Roman,serif" font-size="14.00">xhk</text>
</g>
<!-- ntq&#45;&gt;hfx -->
<g id="edge22" class="edge">
<title>ntq&#45;&gt;hfx</title>
<path fill="none" stroke="black" d="M532.07,-446.62C493.29,-416.87 401.41,-338.88 371.61,-247.5 346.36,-170.05 411.6,-82.61 447.64,-42"/>
<polygon fill="black" stroke="black" points="450.1,-44.49 454.24,-34.73 444.92,-39.78 450.1,-44.49"/>
<text text-anchor="middle" x="380.61" y="-234.2" font-family="Times New Roman,serif" font-size="14.00">hfx</text>
</g>
<!-- ntq&#45;&gt;bvb -->
<g id="edge23" class="edge">
<title>ntq&#45;&gt;bvb</title>
<path fill="none" stroke="black" d="M551.4,-442.07C551.9,-436.47 552.37,-430.23 552.61,-424.5 552.93,-417.17 552.74,-415.33 552.61,-408 551.5,-344.64 552.38,-328.69 547.61,-265.5 546.45,-250.11 548.27,-245.72 543.61,-231 542.67,-228.01 541.46,-224.99 540.12,-222.03"/>
<polygon fill="black" stroke="black" points="543.24,-220.44 535.55,-213.15 537.02,-223.65 543.24,-220.44"/>
<text text-anchor="middle" x="561.59" y="-322.7" font-family="Times New Roman,serif" font-size="14.00">bvb</text>
</g>
<!-- rzs -->
<g id="node15" class="node">
<title>rzs</title>
<ellipse fill="none" stroke="black" cx="164.61" cy="-460.5" rx="27" ry="18"/>
<text text-anchor="middle" x="164.61" y="-455.45" font-family="Times New Roman,serif" font-size="14.00">rzs</text>
</g>
<!-- rzs&#45;&gt;rsh -->
<g id="edge30" class="edge">
<title>rzs&#45;&gt;rsh</title>
<path fill="none" stroke="black" d="M153.79,-443.63C145.14,-430.95 132.85,-412.94 122.85,-398.27"/>
<polygon fill="black" stroke="black" points="125.75,-396.3 117.22,-390.02 119.96,-400.25 125.75,-396.3"/>
<text text-anchor="middle" x="148.65" y="-411.2" font-family="Times New Roman,serif" font-size="14.00">rsh</text>
</g>
<!-- rzs&#45;&gt;lsr -->
<g id="edge29" class="edge">
<title>rzs&#45;&gt;lsr</title>
<path fill="none" stroke="black" d="M143.23,-448.96C109.39,-431.01 44.32,-391.01 15.11,-336 -6.79,-294.75 -1.68,-276.06 10.61,-231 11.39,-228.17 12.4,-225.31 13.56,-222.51"/>
<polygon fill="black" stroke="black" points="16.7,-224.05 17.87,-213.52 10.39,-221.03 16.7,-224.05"/>
<text text-anchor="middle" x="21.86" y="-322.7" font-family="Times New Roman,serif" font-size="14.00">lsr</text>
</g>
<!-- rzs&#45;&gt;cmg -->
<g id="edge28" class="edge">
<title>rzs&#45;&gt;cmg</title>
<path fill="none" stroke="black" d="M189.61,-453.31C206.21,-448.06 227.49,-439.03 241.61,-424.5 272.11,-393.15 287.85,-343.67 295.16,-312.71"/>
<polygon fill="black" stroke="black" points="298.5,-313.82 297.24,-303.3 291.66,-312.31 298.5,-313.82"/>
<text text-anchor="middle" x="294.72" y="-366.95" font-family="Times New Roman,serif" font-size="14.00">cmg</text>
</g>
<!-- rzs&#45;&gt;qnr -->
<g id="edge27" class="edge">
<title>rzs&#45;&gt;qnr</title>
<path fill="none" stroke="black" d="M169.29,-442.62C181.55,-398.38 214.68,-278.77 229.85,-224.03"/>
<polygon fill="black" stroke="black" points="233.18,-225.11 232.48,-214.54 226.43,-223.25 233.18,-225.11"/>
<text text-anchor="middle" x="211.8" y="-322.7" font-family="Times New Roman,serif" font-size="14.00">qnr</text>
</g>
</g>
</svg>
