<?xml version="1.0" encoding="UTF-8" standalone="no"?>
<!DOCTYPE svg PUBLIC "-//W3C//DTD SVG 1.1//EN"
 "http://www.w3.org/Graphics/SVG/1.1/DTD/svg11.dtd">
<!-- Generated by graphviz version 12.2.1 (20241206.2353)
 -->
<!-- Pages: 1 -->
<svg width="130pt" height="130pt"
 viewBox="0.00 0.00 130.47 130.47" xmlns="http://www.w3.org/2000/svg" xmlns:xlink="http://www.w3.org/1999/xlink">
<g id="graph0" class="graph" transform="scale(1 1) rotate(0) translate(4 126.47)">
<polygon fill="white" stroke="none" points="-4,4 -4,-126.47 126.47,-126.47 126.47,4 -4,4"/>
<!-- jqt -->
<g id="node1" class="node">
<title>jqt</title>
<polygon fill="none" stroke="black" points="30.62,-122.47 0,-122.47 0,-89.81 30.62,-89.81 30.62,-122.47"/>
<text text-anchor="middle" x="15.31" y="-101.09" font-family="Times New Roman,serif" font-size="14.00">jqt</text>
</g>
<!-- rhn -->
<g id="node2" class="node">
<title>rhn</title>
<polygon fill="none" stroke="black" points="61.24,-122.47 30.62,-122.47 30.62,-89.81 61.24,-89.81 61.24,-122.47"/>
<text text-anchor="middle" x="45.93" y="-101.09" font-family="Times New Roman,serif" font-size="14.00">rhn</text>
</g>
<!-- xhk -->
<g id="node3" class="node">
<title>xhk</title>
<polygon fill="none" stroke="black" points="91.86,-122.47 61.24,-122.47 61.24,-89.81 91.86,-89.81 91.86,-122.47"/>
<text text-anchor="middle" x="76.55" y="-101.09" font-family="Times New Roman,serif" font-size="14.00">xhk</text>
</g>
<!-- nvd -->
<g id="node4" class="node">
<title>nvd</title>
<polygon fill="none" stroke="black" points="122.47,-122.47 91.86,-122.47 91.86,-89.81 122.47,-89.81 122.47,-122.47"/>
<text text-anchor="middle" x="107.17" y="-101.09" font-family="Times New Roman,serif" font-size="14.00">nvd</text>
</g>
<!-- hfx -->
<g id="node9" class="node">
<title>hfx</title>
<polygon fill="none" stroke="black" points="92.78,-89.81 63.09,-89.81 63.09,-56.13 92.78,-56.13 92.78,-89.81"/>
<text text-anchor="middle" x="77.94" y="-67.92" font-family="Times New Roman,serif" font-size="14.00">hfx</text>
</g>
<!-- bvb -->
<g id="node13" class="node">
<title>bvb</title>
<polygon fill="none" stroke="black" points="95.75,-56.13 69.03,-56.13 69.03,-18.71 95.75,-18.71 95.75,-56.13"/>
<text text-anchor="middle" x="82.39" y="-32.37" font-family="Times New Roman,serif" font-size="14.00">bvb</text>
</g>
<!-- lhk -->
<g id="node12" class="node">
<title>lhk</title>
<polygon fill="none" stroke="black" points="69.03,-28.07 33.4,-28.07 33.4,0 69.03,0 69.03,-28.07"/>
<text text-anchor="middle" x="51.22" y="-8.98" font-family="Times New Roman,serif" font-size="14.00">lhk</text>
</g>
<!-- rsh -->
<g id="node5" class="node">
<title>rsh</title>
<polygon fill="none" stroke="black" points="33.4,-89.81 0,-89.81 0,-59.88 33.4,-59.88 33.4,-89.81"/>
<text text-anchor="middle" x="16.7" y="-69.8" font-family="Times New Roman,serif" font-size="14.00">rsh</text>
</g>
<!-- frs -->
<g id="node6" class="node">
<title>frs</title>
<polygon fill="none" stroke="black" points="33.4,-59.88 0,-59.88 0,-29.94 33.4,-29.94 33.4,-59.88"/>
<text text-anchor="middle" x="16.7" y="-39.86" font-family="Times New Roman,serif" font-size="14.00">frs</text>
</g>
<!-- pzl -->
<g id="node7" class="node">
<title>pzl</title>
<polygon fill="none" stroke="black" points="33.4,-29.94 0,-29.94 0,0 33.4,0 33.4,-29.94"/>
<text text-anchor="middle" x="16.7" y="-9.92" font-family="Times New Roman,serif" font-size="14.00">pzl</text>
</g>
<!-- lsr -->
<g id="node8" class="node">
<title>lsr</title>
<polygon fill="none" stroke="black" points="63.09,-89.81 33.4,-89.81 33.4,-56.13 63.09,-56.13 63.09,-89.81"/>
<text text-anchor="middle" x="48.25" y="-67.92" font-family="Times New Roman,serif" font-size="14.00">lsr</text>
</g>
<!-- qnr -->
<g id="node11" class="node">
<title>qnr</title>
<polygon fill="none" stroke="black" points="69.03,-56.13 33.4,-56.13 33.4,-28.07 69.03,-28.07 69.03,-56.13"/>
<text text-anchor="middle" x="51.22" y="-37.05" font-family="Times New Roman,serif" font-size="14.00">qnr</text>
</g>
<!-- cmg -->
<g id="node10" class="node">
<title>cmg</title>
<polygon fill="none" stroke="black" points="122.47,-89.81 92.78,-89.81 92.78,-56.13 122.47,-56.13 122.47,-89.81"/>
<text text-anchor="middle" x="107.63" y="-67.92" font-family="Times New Roman,serif" font-size="14.00">cmg</text>
</g>
<!-- ntq -->
<g id="node14" class="node">
<title>ntq</title>
<polygon fill="none" stroke="black" points="122.47,-56.13 95.75,-56.13 95.75,-18.71 122.47,-18.71 122.47,-56.13"/>
<text text-anchor="middle" x="109.11" y="-32.37" font-family="Times New Roman,serif" font-size="14.00">ntq</text>
</g>
<!-- rzs -->
<g id="node15" class="node">
<title>rzs</title>
<polygon fill="none" stroke="black" points="122.47,-18.71 69.03,-18.71 69.03,0 122.47,0 122.47,-18.71"/>
<text text-anchor="middle" x="95.75" y="-4.31" font-family="Times New Roman,serif" font-size="14.00">rzs</text>
</g>
</g>
</svg>
