<?xml version="1.0" encoding="UTF-8" standalone="no"?>
<!DOCTYPE svg PUBLIC "-//W3C//DTD SVG 1.1//EN"
 "http://www.w3.org/Graphics/SVG/1.1/DTD/svg11.dtd">
<!-- Generated by graphviz version 12.2.1 (20241206.2353)
 -->
<!-- Pages: 1 -->
<svg width="237pt" height="164pt"
 viewBox="0.00 0.00 237.00 164.00" xmlns="http://www.w3.org/2000/svg" xmlns:xlink="http://www.w3.org/1999/xlink">
<g id="graph0" class="graph" transform="scale(1 1) rotate(0) translate(4 160)">
<polygon fill="white" stroke="none" points="-4,4 -4,-160 233,-160 233,4 -4,4"/>
<!-- jqt -->
<g id="node1" class="node">
<title>jqt</title>
<ellipse fill="none" stroke="black" cx="86" cy="-58" rx="27" ry="18"/>
<text text-anchor="middle" x="86" y="-52.95" font-family="Times New Roman,serif" font-size="14.00">jqt</text>
</g>
<!-- rhn -->
<g id="node2" class="node">
<title>rhn</title>
<ellipse fill="none" stroke="black" cx="86" cy="-138" rx="27" ry="18"/>
<text text-anchor="middle" x="86" y="-132.95" font-family="Times New Roman,serif" font-size="14.00">rhn</text>
</g>
<!-- jqt&#45;&gt;rhn -->
<g id="edge1" class="edge">
<title>jqt&#45;&gt;rhn</title>
<path fill="none" stroke="black" d="M86,-76.15C86,-85.6 86,-97.39 86,-108.13"/>
<polygon fill="black" stroke="black" points="82.5,-108.13 86,-118.13 89.5,-108.13 82.5,-108.13"/>
<text text-anchor="middle" x="77" y="-95.34" font-family="Times New Roman,serif" font-size="14.00">rhn</text>
</g>
<!-- xhk -->
<g id="node3" class="node">
<title>xhk</title>
<ellipse fill="none" stroke="black" cx="144" cy="-138" rx="27" ry="18"/>
<text text-anchor="middle" x="144" y="-132.95" font-family="Times New Roman,serif" font-size="14.00">xhk</text>
</g>
<!-- jqt&#45;&gt;xhk -->
<g id="edge2" class="edge">
<title>jqt&#45;&gt;xhk</title>
<path fill="none" stroke="black" d="M98.02,-74.58C105.95,-85.52 116.5,-100.07 125.49,-112.47"/>
<polygon fill="black" stroke="black" points="122.41,-114.18 131.11,-120.22 128.07,-110.07 122.41,-114.18"/>
<text text-anchor="middle" x="111.76" y="-80.22" font-family="Times New Roman,serif" font-size="14.00">xhk</text>
</g>
<!-- nvd -->
<g id="node4" class="node">
<title>nvd</title>
<ellipse fill="none" stroke="black" cx="202" cy="-138" rx="27" ry="18"/>
<text text-anchor="middle" x="202" y="-132.95" font-family="Times New Roman,serif" font-size="14.00">nvd</text>
</g>
<!-- jqt&#45;&gt;nvd -->
<g id="edge3" class="edge">
<title>jqt&#45;&gt;nvd</title>
<path fill="none" stroke="black" d="M105.16,-71.21C123.79,-84.06 152.34,-103.75 173.61,-118.42"/>
<polygon fill="black" stroke="black" points="171.35,-121.11 181.57,-123.91 175.33,-115.35 171.35,-121.11"/>
<text text-anchor="middle" x="149.51" y="-81.52" font-family="Times New Roman,serif" font-size="14.00">nvd</text>
</g>
<!-- rhn&#45;&gt;xhk -->
<g id="edge12" class="edge">
<title>rhn&#45;&gt;xhk</title>
<path fill="none" stroke="black" d="M113.3,-138C113.45,-138 113.6,-138 113.74,-138"/>
<polygon fill="black" stroke="black" points="105.32,-141.5 115.32,-138 105.32,-134.5 105.32,-141.5"/>
<text text-anchor="middle" x="123.65" y="-141.2" font-family="Times New Roman,serif" font-size="14.00">xhk</text>
</g>
<!-- hfx -->
<g id="node9" class="node">
<title>hfx</title>
<ellipse fill="none" stroke="black" cx="27" cy="-58" rx="27" ry="18"/>
<text text-anchor="middle" x="27" y="-52.95" font-family="Times New Roman,serif" font-size="14.00">hfx</text>
</g>
<!-- rhn&#45;&gt;hfx -->
<g id="edge14" class="edge">
<title>rhn&#45;&gt;hfx</title>
<path fill="none" stroke="black" d="M74.06,-121.81C65.96,-110.82 55.07,-96.07 45.82,-83.51"/>
<polygon fill="black" stroke="black" points="48.77,-81.63 40.02,-75.66 43.14,-85.78 48.77,-81.63"/>
<text text-anchor="middle" x="50.94" y="-105.86" font-family="Times New Roman,serif" font-size="14.00">hfx</text>
</g>
<!-- bvb -->
<g id="node13" class="node">
<title>bvb</title>
<ellipse fill="none" stroke="black" cx="27" cy="-18" rx="27" ry="18"/>
<text text-anchor="middle" x="27" y="-12.95" font-family="Times New Roman,serif" font-size="14.00">bvb</text>
</g>
<!-- rhn&#45;&gt;bvb -->
<g id="edge13" class="edge">
<title>rhn&#45;&gt;bvb</title>
<path fill="none" stroke="black" d="M77.42,-120.55C67.76,-100.91 51.95,-68.74 40.6,-45.66"/>
<polygon fill="black" stroke="black" points="43.81,-44.26 36.26,-36.83 37.53,-47.35 43.81,-44.26"/>
<text text-anchor="middle" x="48.89" y="-69.81" font-family="Times New Roman,serif" font-size="14.00">bvb</text>
</g>
<!-- xhk&#45;&gt;hfx -->
<g id="edge7" class="edge">
<title>xhk&#45;&gt;hfx</title>
<path fill="none" stroke="black" d="M124.94,-124.97C106.07,-112.07 76.96,-92.16 55.37,-77.4"/>
<polygon fill="black" stroke="black" points="57.53,-74.64 47.3,-71.88 53.58,-80.41 57.53,-74.64"/>
<text text-anchor="middle" x="99.16" y="-104.39" font-family="Times New Roman,serif" font-size="14.00">hfx</text>
</g>
<!-- lhk -->
<g id="node12" class="node">
<title>lhk</title>
<ellipse fill="none" stroke="black" cx="202" cy="-58" rx="27" ry="18"/>
<text text-anchor="middle" x="202" y="-52.95" font-family="Times New Roman,serif" font-size="14.00">lhk</text>
</g>
<!-- nvd&#45;&gt;lhk -->
<g id="edge25" class="edge">
<title>nvd&#45;&gt;lhk</title>
<path fill="none" stroke="black" d="M202,-119.85C202,-110.4 202,-98.61 202,-87.87"/>
<polygon fill="black" stroke="black" points="205.5,-87.87 202,-77.87 198.5,-87.87 205.5,-87.87"/>
<text text-anchor="middle" x="210.62" y="-107.06" font-family="Times New Roman,serif" font-size="14.00">lhk</text>
</g>
<!-- rsh -->
<g id="node5" class="node">
<title>rsh</title>
<ellipse fill="none" stroke="black" cx="27" cy="-98" rx="27" ry="18"/>
<text text-anchor="middle" x="27" y="-92.95" font-family="Times New Roman,serif" font-size="14.00">rsh</text>
</g>
<!-- frs -->
<g id="node6" class="node">
<title>frs</title>
<ellipse fill="none" stroke="black" cx="86" cy="-98" rx="27" ry="18"/>
<text text-anchor="middle" x="86" y="-92.95" font-family="Times New Roman,serif" font-size="14.00">frs</text>
</g>
<!-- rsh&#45;&gt;frs -->
<g id="edge4" class="edge">
<title>rsh&#45;&gt;frs</title>
<path fill="none" stroke="black" d="M54.43,-98C54.52,-98 54.61,-98 54.7,-98"/>
<polygon fill="black" stroke="black" points="47.25,-101.5 57.25,-98 47.25,-94.5 47.25,-101.5"/>
<text text-anchor="middle" x="61.69" y="-101.2" font-family="Times New Roman,serif" font-size="14.00">frs</text>
</g>
<!-- pzl -->
<g id="node7" class="node">
<title>pzl</title>
<ellipse fill="none" stroke="black" cx="144" cy="-98" rx="27" ry="18"/>
<text text-anchor="middle" x="144" y="-92.95" font-family="Times New Roman,serif" font-size="14.00">pzl</text>
</g>
<!-- rsh&#45;&gt;pzl -->
<g id="edge5" class="edge">
<title>rsh&#45;&gt;pzl</title>
<path fill="none" stroke="black" d="M54.43,-98C69.69,-98 88.91,-98 105.64,-98"/>
<polygon fill="black" stroke="black" points="105.23,-101.5 115.23,-98 105.23,-94.5 105.23,-101.5"/>
<text text-anchor="middle" x="88.29" y="-84.7" font-family="Times New Roman,serif" font-size="14.00">pzl</text>
</g>
<!-- lsr -->
<g id="node8" class="node">
<title>lsr</title>
<ellipse fill="none" stroke="black" cx="202" cy="-98" rx="27" ry="18"/>
<text text-anchor="middle" x="202" y="-92.95" font-family="Times New Roman,serif" font-size="14.00">lsr</text>
</g>
<!-- rsh&#45;&gt;lsr -->
<g id="edge6" class="edge">
<title>rsh&#45;&gt;lsr</title>
<path fill="none" stroke="black" d="M54.34,-98C83.54,-98 130.05,-98 163.07,-98"/>
<polygon fill="black" stroke="black" points="163.05,-101.5 173.05,-98 163.05,-94.5 163.05,-101.5"/>
<text text-anchor="middle" x="115.45" y="-101.2" font-family="Times New Roman,serif" font-size="14.00">lsr</text>
</g>
<!-- frs&#45;&gt;lsr -->
<g id="edge33" class="edge">
<title>frs&#45;&gt;lsr</title>
<path fill="none" stroke="black" d="M113.49,-98C128.37,-98 147,-98 163.32,-98"/>
<polygon fill="black" stroke="black" points="163.19,-101.5 173.19,-98 163.19,-94.5 163.19,-101.5"/>
<text text-anchor="middle" x="145.15" y="-101.2" font-family="Times New Roman,serif" font-size="14.00">lsr</text>
</g>
<!-- qnr -->
<g id="node11" class="node">
<title>qnr</title>
<ellipse fill="none" stroke="black" cx="144" cy="-58" rx="27" ry="18"/>
<text text-anchor="middle" x="144" y="-52.95" font-family="Times New Roman,serif" font-size="14.00">qnr</text>
</g>
<!-- frs&#45;&gt;qnr -->
<g id="edge31" class="edge">
<title>frs&#45;&gt;qnr</title>
<path fill="none" stroke="black" d="M104.99,-84.9C108.43,-82.53 112.09,-80.01 115.72,-77.5"/>
<polygon fill="black" stroke="black" points="117.67,-80.41 123.92,-71.85 113.7,-74.65 117.67,-80.41"/>
<text text-anchor="middle" x="101.36" y="-67.9" font-family="Times New Roman,serif" font-size="14.00">qnr</text>
</g>
<!-- frs&#45;&gt;lhk -->
<g id="edge32" class="edge">
<title>frs&#45;&gt;lhk</title>
<path fill="none" stroke="black" d="M110.32,-89.61C126.71,-83.96 148.6,-76.41 166.88,-70.11"/>
<polygon fill="black" stroke="black" points="167.97,-73.44 176.28,-66.87 165.69,-66.82 167.97,-73.44"/>
<text text-anchor="middle" x="129.97" y="-66.56" font-family="Times New Roman,serif" font-size="14.00">lhk</text>
</g>
<!-- pzl&#45;&gt;nvd -->
<g id="edge19" class="edge">
<title>pzl&#45;&gt;nvd</title>
<path fill="none" stroke="black" d="M162.99,-111.1C166.43,-113.47 170.09,-115.99 173.72,-118.5"/>
<polygon fill="black" stroke="black" points="171.7,-121.35 181.92,-124.15 175.67,-115.59 171.7,-121.35"/>
<text text-anchor="middle" x="178.48" y="-101.5" font-family="Times New Roman,serif" font-size="14.00">nvd</text>
</g>
<!-- pzl&#45;&gt;lsr -->
<g id="edge17" class="edge">
<title>pzl&#45;&gt;lsr</title>
<path fill="none" stroke="black" d="M171.3,-98C171.45,-98 171.6,-98 171.74,-98"/>
<polygon fill="black" stroke="black" points="163.32,-101.5 173.32,-98 163.32,-94.5 163.32,-101.5"/>
<text text-anchor="middle" x="178.27" y="-84.7" font-family="Times New Roman,serif" font-size="14.00">lsr</text>
</g>
<!-- pzl&#45;&gt;hfx -->
<g id="edge18" class="edge">
<title>pzl&#45;&gt;hfx</title>
<path fill="none" stroke="black" d="M119.76,-89.71C103.05,-84 80.59,-76.32 61.95,-69.95"/>
<polygon fill="black" stroke="black" points="63.24,-66.69 52.64,-66.77 60.97,-73.31 63.24,-66.69"/>
<text text-anchor="middle" x="81.85" y="-66.53" font-family="Times New Roman,serif" font-size="14.00">hfx</text>
</g>
<!-- lsr&#45;&gt;lhk -->
<g id="edge26" class="edge">
<title>lsr&#45;&gt;lhk</title>
<path fill="none" stroke="black" d="M202,-79.87C202,-79.73 202,-79.58 202,-79.44"/>
<polygon fill="black" stroke="black" points="205.5,-87.9 202,-77.9 198.5,-87.9 205.5,-87.9"/>
<text text-anchor="middle" x="210.62" y="-66.36" font-family="Times New Roman,serif" font-size="14.00">lhk</text>
</g>
<!-- cmg -->
<g id="node10" class="node">
<title>cmg</title>
<ellipse fill="none" stroke="black" cx="27.3" cy="-138" rx="27.3" ry="18"/>
<text text-anchor="middle" x="27.3" y="-132.95" font-family="Times New Roman,serif" font-size="14.00">cmg</text>
</g>
<!-- cmg&#45;&gt;nvd -->
<g id="edge9" class="edge">
<title>cmg&#45;&gt;nvd</title>
<path fill="none" stroke="black" d="M54.98,-138C84.2,-138 130.48,-138 163.31,-138"/>
<polygon fill="black" stroke="black" points="163.22,-141.5 173.22,-138 163.22,-134.5 163.22,-141.5"/>
<text text-anchor="middle" x="114.21" y="-124.7" font-family="Times New Roman,serif" font-size="14.00">nvd</text>
</g>
<!-- cmg&#45;&gt;qnr -->
<g id="edge8" class="edge">
<title>cmg&#45;&gt;qnr</title>
<path fill="none" stroke="black" d="M46.57,-124.79C65.43,-111.86 94.38,-92.01 115.83,-77.31"/>
<polygon fill="black" stroke="black" points="117.57,-80.36 123.84,-71.82 113.61,-74.59 117.57,-80.36"/>
<text text-anchor="middle" x="72.2" y="-104.25" font-family="Times New Roman,serif" font-size="14.00">qnr</text>
</g>
<!-- cmg&#45;&gt;lhk -->
<g id="edge10" class="edge">
<title>cmg&#45;&gt;lhk</title>
<path fill="none" stroke="black" d="M50.14,-127.54C80.56,-113.61 134.58,-88.87 169.32,-72.97"/>
<polygon fill="black" stroke="black" points="170.42,-76.31 178.06,-68.96 167.51,-69.95 170.42,-76.31"/>
<text text-anchor="middle" x="118.35" y="-103.45" font-family="Times New Roman,serif" font-size="14.00">lhk</text>
</g>
<!-- cmg&#45;&gt;bvb -->
<g id="edge11" class="edge">
<title>cmg&#45;&gt;bvb</title>
<path fill="none" stroke="black" d="M27.25,-119.51C27.2,-100.34 27.13,-70.08 27.07,-47.58"/>
<polygon fill="black" stroke="black" points="30.57,-47.82 27.05,-37.82 23.57,-47.83 30.57,-47.82"/>
<text text-anchor="middle" x="17.04" y="-70.25" font-family="Times New Roman,serif" font-size="14.00">bvb</text>
</g>
<!-- qnr&#45;&gt;nvd -->
<g id="edge20" class="edge">
<title>qnr&#45;&gt;nvd</title>
<path fill="none" stroke="black" d="M156.02,-74.58C163.95,-85.52 174.5,-100.07 183.49,-112.47"/>
<polygon fill="black" stroke="black" points="180.41,-114.18 189.11,-120.22 186.07,-110.07 180.41,-114.18"/>
<text text-anchor="middle" x="174.82" y="-80.22" font-family="Times New Roman,serif" font-size="14.00">nvd</text>
</g>
<!-- bvb&#45;&gt;xhk -->
<g id="edge15" class="edge">
<title>bvb&#45;&gt;xhk</title>
<path fill="none" stroke="black" d="M41.82,-33.2C61.84,-53.73 97.72,-90.54 121.19,-114.61"/>
<polygon fill="black" stroke="black" points="118.39,-116.75 127.88,-121.46 123.4,-111.86 118.39,-116.75"/>
<text text-anchor="middle" x="71.38" y="-60.6" font-family="Times New Roman,serif" font-size="14.00">xhk</text>
</g>
<!-- bvb&#45;&gt;hfx -->
<g id="edge16" class="edge">
<title>bvb&#45;&gt;hfx</title>
<path fill="none" stroke="black" d="M27,-36.13C27,-36.27 27,-36.42 27,-36.56"/>
<polygon fill="black" stroke="black" points="23.5,-28.1 27,-38.1 30.5,-28.1 23.5,-28.1"/>
<text text-anchor="middle" x="18" y="-39.54" font-family="Times New Roman,serif" font-size="14.00">hfx</text>
</g>
<!-- ntq -->
<g id="node14" class="node">
<title>ntq</title>
<ellipse fill="none" stroke="black" cx="86" cy="-18" rx="27" ry="18"/>
<text text-anchor="middle" x="86" y="-12.95" font-family="Times New Roman,serif" font-size="14.00">ntq</text>
</g>
<!-- ntq&#45;&gt;jqt -->
<g id="edge21" class="edge">
<title>ntq&#45;&gt;jqt</title>
<path fill="none" stroke="black" d="M86,-36.13C86,-36.27 86,-36.42 86,-36.56"/>
<polygon fill="black" stroke="black" points="82.5,-28.1 86,-38.1 89.5,-28.1 82.5,-28.1"/>
<text text-anchor="middle" x="93.12" y="-39.54" font-family="Times New Roman,serif" font-size="14.00">jqt</text>
</g>
<!-- ntq&#45;&gt;xhk -->
<g id="edge24" class="edge">
<title>ntq&#45;&gt;xhk</title>
<path fill="none" stroke="black" d="M94.43,-35.45C103.93,-55.09 119.48,-87.26 130.63,-110.34"/>
<polygon fill="black" stroke="black" points="127.39,-111.69 134.9,-119.17 133.7,-108.64 127.39,-111.69"/>
<text text-anchor="middle" x="112.53" y="-59.59" font-family="Times New Roman,serif" font-size="14.00">xhk</text>
</g>
<!-- ntq&#45;&gt;hfx -->
<g id="edge22" class="edge">
<title>ntq&#45;&gt;hfx</title>
<path fill="none" stroke="black" d="M66.68,-31.1C63.08,-33.54 59.25,-36.14 55.44,-38.72"/>
<polygon fill="black" stroke="black" points="53.73,-35.65 47.41,-44.16 57.65,-41.45 53.73,-35.65"/>
<text text-anchor="middle" x="52.06" y="-21.61" font-family="Times New Roman,serif" font-size="14.00">hfx</text>
</g>
<!-- ntq&#45;&gt;bvb -->
<g id="edge23" class="edge">
<title>ntq&#45;&gt;bvb</title>
<path fill="none" stroke="black" d="M58.57,-18C58.48,-18 58.39,-18 58.3,-18"/>
<polygon fill="black" stroke="black" points="65.75,-14.5 55.75,-18 65.75,-21.5 65.75,-14.5"/>
<text text-anchor="middle" x="53.37" y="-4.7" font-family="Times New Roman,serif" font-size="14.00">bvb</text>
</g>
<!-- rzs -->
<g id="node15" class="node">
<title>rzs</title>
<ellipse fill="none" stroke="black" cx="144" cy="-18" rx="27" ry="18"/>
<text text-anchor="middle" x="144" y="-12.95" font-family="Times New Roman,serif" font-size="14.00">rzs</text>
</g>
<!-- rzs&#45;&gt;rsh -->
<g id="edge30" class="edge">
<title>rzs&#45;&gt;rsh</title>
<path fill="none" stroke="black" d="M124.94,-31.03C106.07,-43.93 76.96,-63.84 55.37,-78.6"/>
<polygon fill="black" stroke="black" points="53.58,-75.59 47.3,-84.12 57.53,-81.36 53.58,-75.59"/>
<text text-anchor="middle" x="98.41" y="-41.51" font-family="Times New Roman,serif" font-size="14.00">rsh</text>
</g>
<!-- rzs&#45;&gt;lsr -->
<g id="edge29" class="edge">
<title>rzs&#45;&gt;lsr</title>
<path fill="none" stroke="black" d="M156.02,-34.58C163.95,-45.52 174.5,-60.07 183.49,-72.47"/>
<polygon fill="black" stroke="black" points="180.41,-74.18 189.11,-80.22 186.07,-70.07 180.41,-74.18"/>
<text text-anchor="middle" x="173.13" y="-40.22" font-family="Times New Roman,serif" font-size="14.00">lsr</text>
</g>
<!-- rzs&#45;&gt;cmg -->
<g id="edge28" class="edge">
<title>rzs&#45;&gt;cmg</title>
<path fill="none" stroke="black" d="M129.22,-33.2C109.34,-53.64 73.77,-90.21 50.35,-114.29"/>
<polygon fill="black" stroke="black" points="47.84,-111.85 43.38,-121.46 52.86,-116.73 47.84,-111.85"/>
<text text-anchor="middle" x="77.79" y="-76.95" font-family="Times New Roman,serif" font-size="14.00">cmg</text>
</g>
<!-- rzs&#45;&gt;qnr -->
<g id="edge27" class="edge">
<title>rzs&#45;&gt;qnr</title>
<path fill="none" stroke="black" d="M144,-36.13C144,-36.27 144,-36.42 144,-36.56"/>
<polygon fill="black" stroke="black" points="140.5,-28.1 144,-38.1 147.5,-28.1 140.5,-28.1"/>
<text text-anchor="middle" x="135" y="-39.54" font-family="Times New Roman,serif" font-size="14.00">qnr</text>
</g>
</g>
</svg>
