<?xml version="1.0" encoding="UTF-8" standalone="no"?>
<!DOCTYPE svg PUBLIC "-//W3C//DTD SVG 1.1//EN"
 "http://www.w3.org/Graphics/SVG/1.1/DTD/svg11.dtd">
<!-- Generated by graphviz version 12.2.1 (20241206.2353)
 -->
<!-- Pages: 1 -->
<svg width="564pt" height="295pt"
 viewBox="0.00 0.00 564.44 294.85" xmlns="http://www.w3.org/2000/svg" xmlns:xlink="http://www.w3.org/1999/xlink">
<g id="graph0" class="graph" transform="scale(1 1) rotate(0) translate(4 290.85)">
<polygon fill="white" stroke="none" points="-4,4 -4,-290.85 560.44,-290.85 560.44,4 -4,4"/>
<!-- jqt -->
<g id="node1" class="node">
<title>jqt</title>
<ellipse fill="none" stroke="black" cx="106.48" cy="-106.82" rx="27" ry="18"/>
<text text-anchor="middle" x="106.48" y="-101.77" font-family="Times New Roman,serif" font-size="14.00">jqt</text>
</g>
<!-- rhn -->
<g id="node2" class="node">
<title>rhn</title>
<ellipse fill="none" stroke="black" cx="46.24" cy="-161.42" rx="27" ry="18"/>
<text text-anchor="middle" x="46.24" y="-156.37" font-family="Times New Roman,serif" font-size="14.00">rhn</text>
</g>
<!-- jqt&#45;&gt;rhn -->
<g id="edge1" class="edge">
<title>jqt&#45;&gt;rhn</title>
<path fill="none" stroke="black" d="M90.34,-121.45C84.26,-126.96 77.21,-133.35 70.55,-139.39"/>
<polygon fill="black" stroke="black" points="68.61,-136.42 63.55,-145.73 73.31,-141.61 68.61,-136.42"/>
<text text-anchor="middle" x="89.44" y="-133.62" font-family="Times New Roman,serif" font-size="14.00">rhn</text>
</g>
<!-- xhk -->
<g id="node3" class="node">
<title>xhk</title>
<ellipse fill="none" stroke="black" cx="90.1" cy="-264.72" rx="27" ry="18"/>
<text text-anchor="middle" x="90.1" y="-259.67" font-family="Times New Roman,serif" font-size="14.00">xhk</text>
</g>
<!-- jqt&#45;&gt;xhk -->
<g id="edge2" class="edge">
<title>jqt&#45;&gt;xhk</title>
<path fill="none" stroke="black" d="M104.57,-125.25C101.77,-152.22 96.53,-202.77 93.18,-235.04"/>
<polygon fill="black" stroke="black" points="89.71,-234.61 92.16,-244.91 96.67,-235.33 89.71,-234.61"/>
<text text-anchor="middle" x="88.75" y="-166.84" font-family="Times New Roman,serif" font-size="14.00">xhk</text>
</g>
<!-- nvd -->
<g id="node4" class="node">
<title>nvd</title>
<ellipse fill="none" stroke="black" cx="275.32" cy="-103.71" rx="27" ry="18"/>
<text text-anchor="middle" x="275.32" y="-98.66" font-family="Times New Roman,serif" font-size="14.00">nvd</text>
</g>
<!-- jqt&#45;&gt;nvd -->
<g id="edge3" class="edge">
<title>jqt&#45;&gt;nvd</title>
<path fill="none" stroke="black" d="M133.61,-106.32C161.46,-105.81 205.08,-105.01 236.56,-104.42"/>
<polygon fill="black" stroke="black" points="236.53,-107.93 246.47,-104.24 236.41,-100.93 236.53,-107.93"/>
<text text-anchor="middle" x="174.96" y="-108.57" font-family="Times New Roman,serif" font-size="14.00">nvd</text>
</g>
<!-- rhn&#45;&gt;xhk -->
<g id="edge12" class="edge">
<title>rhn&#45;&gt;xhk</title>
<path fill="none" stroke="black" d="M53.68,-178.94C60.39,-194.75 70.38,-218.27 78.2,-236.69"/>
<polygon fill="black" stroke="black" points="74.9,-237.88 82.03,-245.72 81.35,-235.15 74.9,-237.88"/>
<text text-anchor="middle" x="76.06" y="-211.01" font-family="Times New Roman,serif" font-size="14.00">xhk</text>
</g>
<!-- hfx -->
<g id="node9" class="node">
<title>hfx</title>
<ellipse fill="none" stroke="black" cx="164.59" cy="-268.85" rx="27" ry="18"/>
<text text-anchor="middle" x="164.59" y="-263.8" font-family="Times New Roman,serif" font-size="14.00">hfx</text>
</g>
<!-- rhn&#45;&gt;hfx -->
<g id="edge14" class="edge">
<title>rhn&#45;&gt;hfx</title>
<path fill="none" stroke="black" d="M62.2,-175.9C82.23,-194.09 116.78,-225.45 140.15,-246.66"/>
<polygon fill="black" stroke="black" points="137.62,-249.1 147.38,-253.23 142.33,-243.92 137.62,-249.1"/>
<text text-anchor="middle" x="110.17" y="-214.48" font-family="Times New Roman,serif" font-size="14.00">hfx</text>
</g>
<!-- bvb -->
<g id="node13" class="node">
<title>bvb</title>
<ellipse fill="none" stroke="black" cx="174.89" cy="-166.25" rx="27" ry="18"/>
<text text-anchor="middle" x="174.89" y="-161.2" font-family="Times New Roman,serif" font-size="14.00">bvb</text>
</g>
<!-- rhn&#45;&gt;bvb -->
<g id="edge13" class="edge">
<title>rhn&#45;&gt;bvb</title>
<path fill="none" stroke="black" d="M73.52,-162.44C91.77,-163.13 116.06,-164.04 136.29,-164.8"/>
<polygon fill="black" stroke="black" points="136.01,-168.29 146.14,-165.17 136.27,-161.3 136.01,-168.29"/>
<text text-anchor="middle" x="94.78" y="-150.32" font-family="Times New Roman,serif" font-size="14.00">bvb</text>
</g>
<!-- xhk&#45;&gt;hfx -->
<g id="edge7" class="edge">
<title>xhk&#45;&gt;hfx</title>
<path fill="none" stroke="black" d="M117.42,-266.24C120.25,-266.39 123.17,-266.56 126.09,-266.72"/>
<polygon fill="black" stroke="black" points="125.59,-270.2 135.77,-267.25 125.98,-263.21 125.59,-270.2"/>
<text text-anchor="middle" x="126.25" y="-253.18" font-family="Times New Roman,serif" font-size="14.00">hfx</text>
</g>
<!-- lhk -->
<g id="node12" class="node">
<title>lhk</title>
<ellipse fill="none" stroke="black" cx="397.62" cy="-75.15" rx="27" ry="18"/>
<text text-anchor="middle" x="397.62" y="-70.1" font-family="Times New Roman,serif" font-size="14.00">lhk</text>
</g>
<!-- nvd&#45;&gt;lhk -->
<g id="edge25" class="edge">
<title>nvd&#45;&gt;lhk</title>
<path fill="none" stroke="black" d="M301.26,-97.65C318.53,-93.62 341.48,-88.26 360.65,-83.79"/>
<polygon fill="black" stroke="black" points="361.3,-87.23 370.25,-81.54 359.71,-80.41 361.3,-87.23"/>
<text text-anchor="middle" x="322.33" y="-93.92" font-family="Times New Roman,serif" font-size="14.00">lhk</text>
</g>
<!-- rsh -->
<g id="node5" class="node">
<title>rsh</title>
<ellipse fill="none" stroke="black" cx="487.99" cy="-256.05" rx="27" ry="18"/>
<text text-anchor="middle" x="487.99" y="-251" font-family="Times New Roman,serif" font-size="14.00">rsh</text>
</g>
<!-- frs -->
<g id="node6" class="node">
<title>frs</title>
<ellipse fill="none" stroke="black" cx="529.44" cy="-111.84" rx="27" ry="18"/>
<text text-anchor="middle" x="529.44" y="-106.79" font-family="Times New Roman,serif" font-size="14.00">frs</text>
</g>
<!-- rsh&#45;&gt;frs -->
<g id="edge4" class="edge">
<title>rsh&#45;&gt;frs</title>
<path fill="none" stroke="black" d="M493.15,-238.08C500.2,-213.55 512.91,-169.32 521.26,-140.27"/>
<polygon fill="black" stroke="black" points="524.52,-141.62 523.92,-131.04 517.79,-139.69 524.52,-141.62"/>
<text text-anchor="middle" x="500.08" y="-192.37" font-family="Times New Roman,serif" font-size="14.00">frs</text>
</g>
<!-- pzl -->
<g id="node7" class="node">
<title>pzl</title>
<ellipse fill="none" stroke="black" cx="327.7" cy="-261.36" rx="27" ry="18"/>
<text text-anchor="middle" x="327.7" y="-256.31" font-family="Times New Roman,serif" font-size="14.00">pzl</text>
</g>
<!-- rsh&#45;&gt;pzl -->
<g id="edge5" class="edge">
<title>rsh&#45;&gt;pzl</title>
<path fill="none" stroke="black" d="M460.8,-256.95C434.89,-257.81 395.62,-259.11 366.45,-260.07"/>
<polygon fill="black" stroke="black" points="366.42,-256.57 356.54,-260.4 366.65,-263.57 366.42,-256.57"/>
<text text-anchor="middle" x="405.37" y="-261.71" font-family="Times New Roman,serif" font-size="14.00">pzl</text>
</g>
<!-- lsr -->
<g id="node8" class="node">
<title>lsr</title>
<ellipse fill="none" stroke="black" cx="440.65" cy="-200.6" rx="27" ry="18"/>
<text text-anchor="middle" x="440.65" y="-195.55" font-family="Times New Roman,serif" font-size="14.00">lsr</text>
</g>
<!-- rsh&#45;&gt;lsr -->
<g id="edge6" class="edge">
<title>rsh&#45;&gt;lsr</title>
<path fill="none" stroke="black" d="M474.29,-240.01C470.24,-235.26 465.7,-229.94 461.3,-224.79"/>
<polygon fill="black" stroke="black" points="464.28,-222.9 455.13,-217.56 458.96,-227.44 464.28,-222.9"/>
<text text-anchor="middle" x="474.55" y="-219.1" font-family="Times New Roman,serif" font-size="14.00">lsr</text>
</g>
<!-- frs&#45;&gt;lsr -->
<g id="edge33" class="edge">
<title>frs&#45;&gt;lsr</title>
<path fill="none" stroke="black" d="M514.37,-126.9C500.47,-140.8 479.62,-161.65 463.64,-177.62"/>
<polygon fill="black" stroke="black" points="461.45,-174.86 456.85,-184.4 466.4,-179.81 461.45,-174.86"/>
<text text-anchor="middle" x="482.25" y="-155.46" font-family="Times New Roman,serif" font-size="14.00">lsr</text>
</g>
<!-- qnr -->
<g id="node11" class="node">
<title>qnr</title>
<ellipse fill="none" stroke="black" cx="409.74" cy="-18" rx="27" ry="18"/>
<text text-anchor="middle" x="409.74" y="-12.95" font-family="Times New Roman,serif" font-size="14.00">qnr</text>
</g>
<!-- frs&#45;&gt;qnr -->
<g id="edge31" class="edge">
<title>frs&#45;&gt;qnr</title>
<path fill="none" stroke="black" d="M511.77,-98C491.88,-82.4 459.35,-56.89 436.37,-38.88"/>
<polygon fill="black" stroke="black" points="438.69,-36.25 428.66,-32.84 434.37,-41.76 438.69,-36.25"/>
<text text-anchor="middle" x="465.07" y="-71.64" font-family="Times New Roman,serif" font-size="14.00">qnr</text>
</g>
<!-- frs&#45;&gt;lhk -->
<g id="edge32" class="edge">
<title>frs&#45;&gt;lhk</title>
<path fill="none" stroke="black" d="M504.33,-104.86C484.27,-99.27 455.88,-91.37 433.43,-85.12"/>
<polygon fill="black" stroke="black" points="434.66,-81.83 424.09,-82.52 432.78,-88.57 434.66,-81.83"/>
<text text-anchor="middle" x="477.51" y="-81.69" font-family="Times New Roman,serif" font-size="14.00">lhk</text>
</g>
<!-- pzl&#45;&gt;nvd -->
<g id="edge19" class="edge">
<title>pzl&#45;&gt;nvd</title>
<path fill="none" stroke="black" d="M321.79,-243.58C312.79,-216.5 295.56,-164.64 284.8,-132.24"/>
<polygon fill="black" stroke="black" points="288.24,-131.49 281.76,-123.1 281.6,-133.69 288.24,-131.49"/>
<text text-anchor="middle" x="293.17" y="-191.11" font-family="Times New Roman,serif" font-size="14.00">nvd</text>
</g>
<!-- pzl&#45;&gt;lsr -->
<g id="edge17" class="edge">
<title>pzl&#45;&gt;lsr</title>
<path fill="none" stroke="black" d="M348.94,-249.93C365.98,-240.77 390.14,-227.77 409.39,-217.42"/>
<polygon fill="black" stroke="black" points="411.02,-220.52 418.16,-212.7 407.7,-214.35 411.02,-220.52"/>
<text text-anchor="middle" x="372.42" y="-236.87" font-family="Times New Roman,serif" font-size="14.00">lsr</text>
</g>
<!-- pzl&#45;&gt;hfx -->
<g id="edge18" class="edge">
<title>pzl&#45;&gt;hfx</title>
<path fill="none" stroke="black" d="M300.4,-262.61C273.82,-263.83 233.16,-265.7 203.26,-267.07"/>
<polygon fill="black" stroke="black" points="203.32,-263.57 193.49,-267.52 203.64,-270.56 203.32,-263.57"/>
<text text-anchor="middle" x="242.83" y="-268.04" font-family="Times New Roman,serif" font-size="14.00">hfx</text>
</g>
<!-- lsr&#45;&gt;lhk -->
<g id="edge26" class="edge">
<title>lsr&#45;&gt;lhk</title>
<path fill="none" stroke="black" d="M434.48,-182.63C427.42,-162.04 415.76,-128.03 407.44,-103.79"/>
<polygon fill="black" stroke="black" points="410.82,-102.85 404.26,-94.53 404.2,-105.12 410.82,-102.85"/>
<text text-anchor="middle" x="412.34" y="-146.41" font-family="Times New Roman,serif" font-size="14.00">lhk</text>
</g>
<!-- cmg -->
<g id="node10" class="node">
<title>cmg</title>
<ellipse fill="none" stroke="black" cx="310.24" cy="-57.98" rx="27.3" ry="18"/>
<text text-anchor="middle" x="310.24" y="-52.93" font-family="Times New Roman,serif" font-size="14.00">cmg</text>
</g>
<!-- cmg&#45;&gt;nvd -->
<g id="edge9" class="edge">
<title>cmg&#45;&gt;nvd</title>
<path fill="none" stroke="black" d="M297.83,-74.23C296.7,-75.72 295.54,-77.24 294.37,-78.77"/>
<polygon fill="black" stroke="black" points="291.9,-76.24 288.61,-86.31 297.46,-80.49 291.9,-76.24"/>
<text text-anchor="middle" x="306.22" y="-79.7" font-family="Times New Roman,serif" font-size="14.00">nvd</text>
</g>
<!-- cmg&#45;&gt;qnr -->
<g id="edge8" class="edge">
<title>cmg&#45;&gt;qnr</title>
<path fill="none" stroke="black" d="M333.82,-48.51C346.34,-43.48 361.94,-37.21 375.74,-31.66"/>
<polygon fill="black" stroke="black" points="376.95,-34.95 384.93,-27.97 374.34,-28.45 376.95,-34.95"/>
<text text-anchor="middle" x="363.78" y="-43.28" font-family="Times New Roman,serif" font-size="14.00">qnr</text>
</g>
<!-- cmg&#45;&gt;lhk -->
<g id="edge10" class="edge">
<title>cmg&#45;&gt;lhk</title>
<path fill="none" stroke="black" d="M336.46,-63.13C343.98,-64.61 352.32,-66.25 360.36,-67.83"/>
<polygon fill="black" stroke="black" points="359.45,-71.22 369.94,-69.71 360.8,-64.35 359.45,-71.22"/>
<text text-anchor="middle" x="357.04" y="-68.68" font-family="Times New Roman,serif" font-size="14.00">lhk</text>
</g>
<!-- cmg&#45;&gt;bvb -->
<g id="edge11" class="edge">
<title>cmg&#45;&gt;bvb</title>
<path fill="none" stroke="black" d="M292.55,-72.14C269.35,-90.7 228.43,-123.43 201.49,-144.98"/>
<polygon fill="black" stroke="black" points="199.4,-142.17 193.77,-151.15 203.77,-147.63 199.4,-142.17"/>
<text text-anchor="middle" x="236.89" y="-111.76" font-family="Times New Roman,serif" font-size="14.00">bvb</text>
</g>
<!-- qnr&#45;&gt;nvd -->
<g id="edge20" class="edge">
<title>qnr&#45;&gt;nvd</title>
<path fill="none" stroke="black" d="M389.91,-30.65C367.47,-44.95 330.7,-68.4 304.88,-84.86"/>
<polygon fill="black" stroke="black" points="303.06,-81.87 296.51,-90.2 306.83,-87.77 303.06,-81.87"/>
<text text-anchor="middle" x="347.39" y="-44.45" font-family="Times New Roman,serif" font-size="14.00">nvd</text>
</g>
<!-- bvb&#45;&gt;xhk -->
<g id="edge15" class="edge">
<title>bvb&#45;&gt;xhk</title>
<path fill="none" stroke="black" d="M161.27,-182.07C147.67,-197.86 126.6,-222.34 110.91,-240.56"/>
<polygon fill="black" stroke="black" points="108.55,-237.93 104.68,-247.79 113.86,-242.5 108.55,-237.93"/>
<text text-anchor="middle" x="125.96" y="-198.02" font-family="Times New Roman,serif" font-size="14.00">xhk</text>
</g>
<!-- bvb&#45;&gt;hfx -->
<g id="edge16" class="edge">
<title>bvb&#45;&gt;hfx</title>
<path fill="none" stroke="black" d="M173.05,-184.59C171.53,-199.77 169.33,-221.61 167.56,-239.26"/>
<polygon fill="black" stroke="black" points="164.08,-238.86 166.56,-249.16 171.05,-239.56 164.08,-238.86"/>
<text text-anchor="middle" x="161.3" y="-215.12" font-family="Times New Roman,serif" font-size="14.00">hfx</text>
</g>
<!-- ntq -->
<g id="node14" class="node">
<title>ntq</title>
<ellipse fill="none" stroke="black" cx="27" cy="-214.96" rx="27" ry="18"/>
<text text-anchor="middle" x="27" y="-209.91" font-family="Times New Roman,serif" font-size="14.00">ntq</text>
</g>
<!-- ntq&#45;&gt;jqt -->
<g id="edge21" class="edge">
<title>ntq&#45;&gt;jqt</title>
<path fill="none" stroke="black" d="M39.07,-198.54C51.97,-180.99 72.58,-152.94 87.62,-132.48"/>
<polygon fill="black" stroke="black" points="90.3,-134.75 93.4,-124.62 84.66,-130.61 90.3,-134.75"/>
<text text-anchor="middle" x="70.47" y="-168.71" font-family="Times New Roman,serif" font-size="14.00">jqt</text>
</g>
<!-- ntq&#45;&gt;xhk -->
<g id="edge24" class="edge">
<title>ntq&#45;&gt;xhk</title>
<path fill="none" stroke="black" d="M44.58,-228.82C50.6,-233.57 57.46,-238.98 64.01,-244.14"/>
<polygon fill="black" stroke="black" points="61.41,-246.55 71.43,-250 65.75,-241.06 61.41,-246.55"/>
<text text-anchor="middle" x="44.17" y="-239.68" font-family="Times New Roman,serif" font-size="14.00">xhk</text>
</g>
<!-- ntq&#45;&gt;hfx -->
<g id="edge22" class="edge">
<title>ntq&#45;&gt;hfx</title>
<path fill="none" stroke="black" d="M50.65,-224.22C72.74,-232.88 105.94,-245.88 130.81,-255.62"/>
<polygon fill="black" stroke="black" points="129.25,-258.77 139.83,-259.16 131.8,-252.25 129.25,-258.77"/>
<text text-anchor="middle" x="90.73" y="-226.62" font-family="Times New Roman,serif" font-size="14.00">hfx</text>
</g>
<!-- ntq&#45;&gt;bvb -->
<g id="edge23" class="edge">
<title>ntq&#45;&gt;bvb</title>
<path fill="none" stroke="black" d="M51.42,-206.92C75.51,-198.98 112.56,-186.78 139.8,-177.81"/>
<polygon fill="black" stroke="black" points="140.59,-181.23 149,-174.78 138.4,-174.58 140.59,-181.23"/>
<text text-anchor="middle" x="105.73" y="-195.56" font-family="Times New Roman,serif" font-size="14.00">bvb</text>
</g>
<!-- rzs -->
<g id="node15" class="node">
<title>rzs</title>
<ellipse fill="none" stroke="black" cx="466.29" cy="-126.56" rx="27" ry="18"/>
<text text-anchor="middle" x="466.29" y="-121.51" font-family="Times New Roman,serif" font-size="14.00">rzs</text>
</g>
<!-- rzs&#45;&gt;rsh -->
<g id="edge30" class="edge">
<title>rzs&#45;&gt;rsh</title>
<path fill="none" stroke="black" d="M469.35,-144.84C472.92,-166.14 478.87,-201.63 483.08,-226.79"/>
<polygon fill="black" stroke="black" points="479.59,-227.09 484.69,-236.37 486.49,-225.93 479.59,-227.09"/>
<text text-anchor="middle" x="484.47" y="-189.01" font-family="Times New Roman,serif" font-size="14.00">rsh</text>
</g>
<!-- rzs&#45;&gt;lsr -->
<g id="edge29" class="edge">
<title>rzs&#45;&gt;lsr</title>
<path fill="none" stroke="black" d="M460.08,-144.48C457.24,-152.7 453.79,-162.64 450.6,-171.86"/>
<polygon fill="black" stroke="black" points="447.35,-170.56 447.38,-181.16 453.96,-172.85 447.35,-170.56"/>
<text text-anchor="middle" x="448.59" y="-161.37" font-family="Times New Roman,serif" font-size="14.00">lsr</text>
</g>
<!-- rzs&#45;&gt;cmg -->
<g id="edge28" class="edge">
<title>rzs&#45;&gt;cmg</title>
<path fill="none" stroke="black" d="M443.6,-116.59C417.33,-105.04 373.8,-85.91 343.66,-72.67"/>
<polygon fill="black" stroke="black" points="345.17,-69.51 334.6,-68.69 342.35,-75.91 345.17,-69.51"/>
<text text-anchor="middle" x="381.63" y="-97.83" font-family="Times New Roman,serif" font-size="14.00">cmg</text>
</g>
<!-- rzs&#45;&gt;qnr -->
<g id="edge27" class="edge">
<title>rzs&#45;&gt;qnr</title>
<path fill="none" stroke="black" d="M457.21,-109.12C448.26,-91.95 434.46,-65.46 424.04,-45.46"/>
<polygon fill="black" stroke="black" points="427.23,-43.99 419.5,-36.74 421.02,-47.23 427.23,-43.99"/>
<text text-anchor="middle" x="445.13" y="-63.99" font-family="Times New Roman,serif" font-size="14.00">qnr</text>
</g>
</g>
</svg>
