<?xml version="1.0" encoding="UTF-8" standalone="no"?>
<!DOCTYPE svg PUBLIC "-//W3C//DTD SVG 1.1//EN"
 "http://www.w3.org/Graphics/SVG/1.1/DTD/svg11.dtd">
<!-- Generated by graphviz version 12.2.1 (20241206.2353)
 -->
<!-- Pages: 1 -->
<svg width="609pt" height="255pt"
 viewBox="0.00 0.00 608.79 254.96" xmlns="http://www.w3.org/2000/svg" xmlns:xlink="http://www.w3.org/1999/xlink">
<g id="graph0" class="graph" transform="scale(1 1) rotate(0) translate(4 250.96)">
<polygon fill="white" stroke="none" points="-4,4 -4,-250.96 604.79,-250.96 604.79,4 -4,4"/>
<!-- jqt -->
<g id="node1" class="node">
<title>jqt</title>
<ellipse fill="none" stroke="black" cx="461.9" cy="-121.39" rx="27" ry="18"/>
<text text-anchor="middle" x="461.9" y="-116.34" font-family="Times New Roman,serif" font-size="14.00">jqt</text>
</g>
<!-- rhn -->
<g id="node2" class="node">
<title>rhn</title>
<ellipse fill="none" stroke="black" cx="573.79" cy="-107.93" rx="27" ry="18"/>
<text text-anchor="middle" x="573.79" y="-102.88" font-family="Times New Roman,serif" font-size="14.00">rhn</text>
</g>
<!-- jqt&#45;&gt;rhn -->
<g id="edge1" class="edge">
<title>jqt&#45;&gt;rhn</title>
<path fill="none" stroke="black" d="M488.7,-118.17C502.71,-116.48 520.11,-114.39 535.51,-112.54"/>
<polygon fill="black" stroke="black" points="535.8,-116.03 545.31,-111.36 534.97,-109.08 535.8,-116.03"/>
<text text-anchor="middle" x="503.11" y="-118.55" font-family="Times New Roman,serif" font-size="14.00">rhn</text>
</g>
<!-- xhk -->
<g id="node3" class="node">
<title>xhk</title>
<ellipse fill="none" stroke="black" cx="539.9" cy="-68.16" rx="27" ry="18"/>
<text text-anchor="middle" x="539.9" y="-63.11" font-family="Times New Roman,serif" font-size="14.00">xhk</text>
</g>
<!-- jqt&#45;&gt;xhk -->
<g id="edge2" class="edge">
<title>jqt&#45;&gt;xhk</title>
<path fill="none" stroke="black" d="M481.18,-108.23C490.34,-101.98 501.48,-94.38 511.57,-87.49"/>
<polygon fill="black" stroke="black" points="513.3,-90.55 519.59,-82.02 509.36,-84.76 513.3,-90.55"/>
<text text-anchor="middle" x="486.25" y="-84.56" font-family="Times New Roman,serif" font-size="14.00">xhk</text>
</g>
<!-- nvd -->
<g id="node4" class="node">
<title>nvd</title>
<ellipse fill="none" stroke="black" cx="276" cy="-142.61" rx="27" ry="18"/>
<text text-anchor="middle" x="276" y="-137.56" font-family="Times New Roman,serif" font-size="14.00">nvd</text>
</g>
<!-- jqt&#45;&gt;nvd -->
<g id="edge3" class="edge">
<title>jqt&#45;&gt;nvd</title>
<path fill="none" stroke="black" d="M434.87,-124.48C403.06,-128.11 350.05,-134.16 314.09,-138.27"/>
<polygon fill="black" stroke="black" points="314.1,-134.74 304.57,-139.35 314.9,-141.7 314.1,-134.74"/>
<text text-anchor="middle" x="364.35" y="-134.57" font-family="Times New Roman,serif" font-size="14.00">nvd</text>
</g>
<!-- rhn&#45;&gt;xhk -->
<g id="edge12" class="edge">
<title>rhn&#45;&gt;xhk</title>
<path fill="none" stroke="black" d="M560.39,-92.21C560.32,-92.13 560.25,-92.04 560.18,-91.96"/>
<polygon fill="black" stroke="black" points="563.55,-90.52 554.4,-85.18 558.22,-95.06 563.55,-90.52"/>
<text text-anchor="middle" x="570.41" y="-78.79" font-family="Times New Roman,serif" font-size="14.00">xhk</text>
</g>
<!-- hfx -->
<g id="node9" class="node">
<title>hfx</title>
<ellipse fill="none" stroke="black" cx="447.45" cy="-55.78" rx="27" ry="18"/>
<text text-anchor="middle" x="447.45" y="-50.73" font-family="Times New Roman,serif" font-size="14.00">hfx</text>
</g>
<!-- rhn&#45;&gt;hfx -->
<g id="edge14" class="edge">
<title>rhn&#45;&gt;hfx</title>
<path fill="none" stroke="black" d="M550.61,-98.37C531.11,-90.32 502.97,-78.7 481.01,-69.63"/>
<polygon fill="black" stroke="black" points="482.45,-66.44 471.87,-65.86 479.78,-72.91 482.45,-66.44"/>
<text text-anchor="middle" x="506.81" y="-87.2" font-family="Times New Roman,serif" font-size="14.00">hfx</text>
</g>
<!-- bvb -->
<g id="node13" class="node">
<title>bvb</title>
<ellipse fill="none" stroke="black" cx="450.55" cy="-175.6" rx="27" ry="18"/>
<text text-anchor="middle" x="450.55" y="-170.55" font-family="Times New Roman,serif" font-size="14.00">bvb</text>
</g>
<!-- rhn&#45;&gt;bvb -->
<g id="edge13" class="edge">
<title>rhn&#45;&gt;bvb</title>
<path fill="none" stroke="black" d="M552.6,-119.56C533,-130.33 503.61,-146.46 481.4,-158.66"/>
<polygon fill="black" stroke="black" points="479.87,-155.51 472.79,-163.39 483.24,-161.65 479.87,-155.51"/>
<text text-anchor="middle" x="527.13" y="-125.81" font-family="Times New Roman,serif" font-size="14.00">bvb</text>
</g>
<!-- xhk&#45;&gt;hfx -->
<g id="edge7" class="edge">
<title>xhk&#45;&gt;hfx</title>
<path fill="none" stroke="black" d="M513.16,-64.58C504.53,-63.42 494.8,-62.12 485.52,-60.88"/>
<polygon fill="black" stroke="black" points="486,-57.41 475.63,-59.55 485.08,-64.35 486,-57.41"/>
<text text-anchor="middle" x="490.34" y="-65.93" font-family="Times New Roman,serif" font-size="14.00">hfx</text>
</g>
<!-- lhk -->
<g id="node12" class="node">
<title>lhk</title>
<ellipse fill="none" stroke="black" cx="157.2" cy="-140.34" rx="27" ry="18"/>
<text text-anchor="middle" x="157.2" y="-135.29" font-family="Times New Roman,serif" font-size="14.00">lhk</text>
</g>
<!-- nvd&#45;&gt;lhk -->
<g id="edge25" class="edge">
<title>nvd&#45;&gt;lhk</title>
<path fill="none" stroke="black" d="M248.74,-142.09C233.05,-141.79 213.07,-141.41 195.78,-141.08"/>
<polygon fill="black" stroke="black" points="195.91,-137.58 185.84,-140.89 195.77,-144.58 195.91,-137.58"/>
<text text-anchor="middle" x="213.64" y="-144.79" font-family="Times New Roman,serif" font-size="14.00">lhk</text>
</g>
<!-- rsh -->
<g id="node5" class="node">
<title>rsh</title>
<ellipse fill="none" stroke="black" cx="65.83" cy="-18" rx="27" ry="18"/>
<text text-anchor="middle" x="65.83" y="-12.95" font-family="Times New Roman,serif" font-size="14.00">rsh</text>
</g>
<!-- frs -->
<g id="node6" class="node">
<title>frs</title>
<ellipse fill="none" stroke="black" cx="27" cy="-124.6" rx="27" ry="18"/>
<text text-anchor="middle" x="27" y="-119.55" font-family="Times New Roman,serif" font-size="14.00">frs</text>
</g>
<!-- rsh&#45;&gt;frs -->
<g id="edge4" class="edge">
<title>rsh&#45;&gt;frs</title>
<path fill="none" stroke="black" d="M59.41,-35.6C53.4,-52.11 44.31,-77.08 37.28,-96.38"/>
<polygon fill="black" stroke="black" points="34.07,-94.96 33.94,-105.55 40.65,-97.35 34.07,-94.96"/>
<text text-anchor="middle" x="41.22" y="-69.19" font-family="Times New Roman,serif" font-size="14.00">frs</text>
</g>
<!-- pzl -->
<g id="node7" class="node">
<title>pzl</title>
<ellipse fill="none" stroke="black" cx="242.03" cy="-19.23" rx="27" ry="18"/>
<text text-anchor="middle" x="242.03" y="-14.18" font-family="Times New Roman,serif" font-size="14.00">pzl</text>
</g>
<!-- rsh&#45;&gt;pzl -->
<g id="edge5" class="edge">
<title>rsh&#45;&gt;pzl</title>
<path fill="none" stroke="black" d="M92.97,-18.19C122.51,-18.39 169.97,-18.73 203.38,-18.96"/>
<polygon fill="black" stroke="black" points="203.03,-22.46 213.05,-19.03 203.08,-15.46 203.03,-22.46"/>
<text text-anchor="middle" x="139.93" y="-21.77" font-family="Times New Roman,serif" font-size="14.00">pzl</text>
</g>
<!-- lsr -->
<g id="node8" class="node">
<title>lsr</title>
<ellipse fill="none" stroke="black" cx="107.69" cy="-56.09" rx="27" ry="18"/>
<text text-anchor="middle" x="107.69" y="-51.04" font-family="Times New Roman,serif" font-size="14.00">lsr</text>
</g>
<!-- rsh&#45;&gt;lsr -->
<g id="edge6" class="edge">
<title>rsh&#45;&gt;lsr</title>
<path fill="none" stroke="black" d="M81.89,-32.62C82.28,-32.97 82.68,-33.33 83.07,-33.69"/>
<polygon fill="black" stroke="black" points="80.59,-36.16 90.34,-40.3 85.3,-30.98 80.59,-36.16"/>
<text text-anchor="middle" x="75.73" y="-36.36" font-family="Times New Roman,serif" font-size="14.00">lsr</text>
</g>
<!-- frs&#45;&gt;lsr -->
<g id="edge33" class="edge">
<title>frs&#45;&gt;lsr</title>
<path fill="none" stroke="black" d="M43.72,-110.4C54.79,-101.01 69.52,-88.5 82.06,-77.85"/>
<polygon fill="black" stroke="black" points="84.2,-80.62 89.56,-71.48 79.67,-75.29 84.2,-80.62"/>
<text text-anchor="middle" x="56.14" y="-80.83" font-family="Times New Roman,serif" font-size="14.00">lsr</text>
</g>
<!-- qnr -->
<g id="node11" class="node">
<title>qnr</title>
<ellipse fill="none" stroke="black" cx="135.32" cy="-228.96" rx="27" ry="18"/>
<text text-anchor="middle" x="135.32" y="-223.91" font-family="Times New Roman,serif" font-size="14.00">qnr</text>
</g>
<!-- frs&#45;&gt;qnr -->
<g id="edge31" class="edge">
<title>frs&#45;&gt;qnr</title>
<path fill="none" stroke="black" d="M42.52,-139.55C60.62,-156.99 90.73,-186 111.73,-206.23"/>
<polygon fill="black" stroke="black" points="109.11,-208.57 118.74,-212.99 113.97,-203.53 109.11,-208.57"/>
<text text-anchor="middle" x="68.12" y="-176.09" font-family="Times New Roman,serif" font-size="14.00">qnr</text>
</g>
<!-- frs&#45;&gt;lhk -->
<g id="edge32" class="edge">
<title>frs&#45;&gt;lhk</title>
<path fill="none" stroke="black" d="M53.98,-127.86C72.75,-130.13 98.04,-133.19 118.89,-135.71"/>
<polygon fill="black" stroke="black" points="118.41,-139.17 128.76,-136.9 119.25,-132.23 118.41,-139.17"/>
<text text-anchor="middle" x="77.81" y="-118.48" font-family="Times New Roman,serif" font-size="14.00">lhk</text>
</g>
<!-- pzl&#45;&gt;nvd -->
<g id="edge19" class="edge">
<title>pzl&#45;&gt;nvd</title>
<path fill="none" stroke="black" d="M246.97,-37.17C252.51,-57.27 261.55,-90.15 268.08,-113.85"/>
<polygon fill="black" stroke="black" points="264.62,-114.48 270.65,-123.19 271.37,-112.62 264.62,-114.48"/>
<text text-anchor="middle" x="247.4" y="-78.71" font-family="Times New Roman,serif" font-size="14.00">nvd</text>
</g>
<!-- pzl&#45;&gt;lsr -->
<g id="edge17" class="edge">
<title>pzl&#45;&gt;lsr</title>
<path fill="none" stroke="black" d="M216.76,-26.16C196.22,-31.8 166.96,-39.83 143.92,-46.15"/>
<polygon fill="black" stroke="black" points="143.02,-42.76 134.31,-48.79 144.88,-49.52 143.02,-42.76"/>
<text text-anchor="middle" x="173.59" y="-39.35" font-family="Times New Roman,serif" font-size="14.00">lsr</text>
</g>
<!-- pzl&#45;&gt;hfx -->
<g id="edge18" class="edge">
<title>pzl&#45;&gt;hfx</title>
<path fill="none" stroke="black" d="M268.47,-23.93C304.44,-30.33 369.02,-41.82 409.98,-49.11"/>
<polygon fill="black" stroke="black" points="409.17,-52.52 419.62,-50.83 410.39,-45.63 409.17,-52.52"/>
<text text-anchor="middle" x="330.22" y="-39.72" font-family="Times New Roman,serif" font-size="14.00">hfx</text>
</g>
<!-- lsr&#45;&gt;lhk -->
<g id="edge26" class="edge">
<title>lsr&#45;&gt;lhk</title>
<path fill="none" stroke="black" d="M117.71,-73.14C124.56,-84.79 133.76,-100.46 141.57,-113.73"/>
<polygon fill="black" stroke="black" points="138.35,-115.16 146.43,-122.01 144.38,-111.62 138.35,-115.16"/>
<text text-anchor="middle" x="121.01" y="-96.64" font-family="Times New Roman,serif" font-size="14.00">lhk</text>
</g>
<!-- cmg -->
<g id="node10" class="node">
<title>cmg</title>
<ellipse fill="none" stroke="black" cx="246.3" cy="-215.29" rx="27.3" ry="18"/>
<text text-anchor="middle" x="246.3" y="-210.24" font-family="Times New Roman,serif" font-size="14.00">cmg</text>
</g>
<!-- cmg&#45;&gt;nvd -->
<g id="edge9" class="edge">
<title>cmg&#45;&gt;nvd</title>
<path fill="none" stroke="black" d="M253.49,-197.7C256.78,-189.64 260.77,-179.88 264.47,-170.83"/>
<polygon fill="black" stroke="black" points="267.65,-172.28 268.2,-161.7 261.17,-169.63 267.65,-172.28"/>
<text text-anchor="middle" x="248.85" y="-170.96" font-family="Times New Roman,serif" font-size="14.00">nvd</text>
</g>
<!-- cmg&#45;&gt;qnr -->
<g id="edge8" class="edge">
<title>cmg&#45;&gt;qnr</title>
<path fill="none" stroke="black" d="M219.15,-218.64C205.34,-220.34 188.34,-222.43 173.26,-224.29"/>
<polygon fill="black" stroke="black" points="173.19,-220.77 163.69,-225.47 174.04,-227.72 173.19,-220.77"/>
<text text-anchor="middle" x="187.2" y="-224.66" font-family="Times New Roman,serif" font-size="14.00">qnr</text>
</g>
<!-- cmg&#45;&gt;lhk -->
<g id="edge10" class="edge">
<title>cmg&#45;&gt;lhk</title>
<path fill="none" stroke="black" d="M229.12,-200.84C216.05,-189.85 197.86,-174.54 183.04,-162.08"/>
<polygon fill="black" stroke="black" points="185.39,-159.48 175.49,-155.72 180.88,-164.84 185.39,-159.48"/>
<text text-anchor="middle" x="197.45" y="-168.16" font-family="Times New Roman,serif" font-size="14.00">lhk</text>
</g>
<!-- cmg&#45;&gt;bvb -->
<g id="edge11" class="edge">
<title>cmg&#45;&gt;bvb</title>
<path fill="none" stroke="black" d="M272.58,-210.19C308.35,-203.23 372.57,-190.76 413.29,-182.84"/>
<polygon fill="black" stroke="black" points="413.73,-186.32 422.88,-180.98 412.4,-179.45 413.73,-186.32"/>
<text text-anchor="middle" x="332.81" y="-199.71" font-family="Times New Roman,serif" font-size="14.00">bvb</text>
</g>
<!-- qnr&#45;&gt;nvd -->
<g id="edge20" class="edge">
<title>qnr&#45;&gt;nvd</title>
<path fill="none" stroke="black" d="M155.48,-216.59C179.19,-202.04 218.78,-177.73 246.08,-160.98"/>
<polygon fill="black" stroke="black" points="247.9,-163.97 254.59,-155.76 244.24,-158 247.9,-163.97"/>
<text text-anchor="middle" x="190.65" y="-191.99" font-family="Times New Roman,serif" font-size="14.00">nvd</text>
</g>
<!-- bvb&#45;&gt;xhk -->
<g id="edge15" class="edge">
<title>bvb&#45;&gt;xhk</title>
<path fill="none" stroke="black" d="M463.73,-159.75C478.38,-142.13 502.23,-113.46 519.33,-92.89"/>
<polygon fill="black" stroke="black" points="521.99,-95.17 525.7,-85.24 516.61,-90.69 521.99,-95.17"/>
<text text-anchor="middle" x="501.66" y="-129.52" font-family="Times New Roman,serif" font-size="14.00">xhk</text>
</g>
<!-- bvb&#45;&gt;hfx -->
<g id="edge16" class="edge">
<title>bvb&#45;&gt;hfx</title>
<path fill="none" stroke="black" d="M450.07,-157.14C449.58,-138 448.79,-107.78 448.21,-85.32"/>
<polygon fill="black" stroke="black" points="451.72,-85.48 447.96,-75.58 444.72,-85.66 451.72,-85.48"/>
<text text-anchor="middle" x="440.14" y="-124.43" font-family="Times New Roman,serif" font-size="14.00">hfx</text>
</g>
<!-- ntq -->
<g id="node14" class="node">
<title>ntq</title>
<ellipse fill="none" stroke="black" cx="545.47" cy="-163.64" rx="27" ry="18"/>
<text text-anchor="middle" x="545.47" y="-158.59" font-family="Times New Roman,serif" font-size="14.00">ntq</text>
</g>
<!-- ntq&#45;&gt;jqt -->
<g id="edge21" class="edge">
<title>ntq&#45;&gt;jqt</title>
<path fill="none" stroke="black" d="M523.52,-152.54C514.4,-147.93 503.64,-142.49 493.69,-137.46"/>
<polygon fill="black" stroke="black" points="495.57,-134.49 485.06,-133.1 492.41,-140.73 495.57,-134.49"/>
<text text-anchor="middle" x="501.48" y="-148.2" font-family="Times New Roman,serif" font-size="14.00">jqt</text>
</g>
<!-- ntq&#45;&gt;xhk -->
<g id="edge24" class="edge">
<title>ntq&#45;&gt;xhk</title>
<path fill="none" stroke="black" d="M544.4,-145.23C543.61,-131.76 542.53,-113.19 541.62,-97.66"/>
<polygon fill="black" stroke="black" points="545.14,-97.8 541.06,-88.02 538.15,-98.21 545.14,-97.8"/>
<text text-anchor="middle" x="532.89" y="-108.15" font-family="Times New Roman,serif" font-size="14.00">xhk</text>
</g>
<!-- ntq&#45;&gt;hfx -->
<g id="edge22" class="edge">
<title>ntq&#45;&gt;hfx</title>
<path fill="none" stroke="black" d="M531.43,-148.19C515.22,-130.35 488.35,-100.79 469.38,-79.91"/>
<polygon fill="black" stroke="black" points="472.12,-77.72 462.8,-72.67 466.94,-82.43 472.12,-77.72"/>
<text text-anchor="middle" x="500.4" y="-100.75" font-family="Times New Roman,serif" font-size="14.00">hfx</text>
</g>
<!-- ntq&#45;&gt;bvb -->
<g id="edge23" class="edge">
<title>ntq&#45;&gt;bvb</title>
<path fill="none" stroke="black" d="M518.53,-167.04C509.31,-168.2 498.81,-169.52 488.87,-170.77"/>
<polygon fill="black" stroke="black" points="488.55,-167.29 479.07,-172.01 489.43,-174.23 488.55,-167.29"/>
<text text-anchor="middle" x="493.57" y="-172.1" font-family="Times New Roman,serif" font-size="14.00">bvb</text>
</g>
<!-- rzs -->
<g id="node15" class="node">
<title>rzs</title>
<ellipse fill="none" stroke="black" cx="88.41" cy="-159.34" rx="27" ry="18"/>
<text text-anchor="middle" x="88.41" y="-154.29" font-family="Times New Roman,serif" font-size="14.00">rzs</text>
</g>
<!-- rzs&#45;&gt;rsh -->
<g id="edge30" class="edge">
<title>rzs&#45;&gt;rsh</title>
<path fill="none" stroke="black" d="M85.5,-141.15C81.71,-117.4 75.02,-75.55 70.51,-47.3"/>
<polygon fill="black" stroke="black" points="73.99,-46.94 68.96,-37.61 67.08,-48.04 73.99,-46.94"/>
<text text-anchor="middle" x="69.75" y="-97.42" font-family="Times New Roman,serif" font-size="14.00">rsh</text>
</g>
<!-- rzs&#45;&gt;lsr -->
<g id="edge29" class="edge">
<title>rzs&#45;&gt;lsr</title>
<path fill="none" stroke="black" d="M91.77,-141.35C94.65,-125.9 98.87,-103.33 102.24,-85.29"/>
<polygon fill="black" stroke="black" points="105.63,-86.17 104.03,-75.7 98.75,-84.89 105.63,-86.17"/>
<text text-anchor="middle" x="90.25" y="-100.02" font-family="Times New Roman,serif" font-size="14.00">lsr</text>
</g>
<!-- rzs&#45;&gt;cmg -->
<g id="edge28" class="edge">
<title>rzs&#45;&gt;cmg</title>
<path fill="none" stroke="black" d="M112.73,-167.96C139.04,-177.28 181.22,-192.23 211.14,-202.83"/>
<polygon fill="black" stroke="black" points="209.92,-206.12 220.52,-206.16 212.26,-199.52 209.92,-206.12"/>
<text text-anchor="middle" x="149.93" y="-188.6" font-family="Times New Roman,serif" font-size="14.00">cmg</text>
</g>
<!-- rzs&#45;&gt;qnr -->
<g id="edge27" class="edge">
<title>rzs&#45;&gt;qnr</title>
<path fill="none" stroke="black" d="M99.53,-175.84C105.02,-183.99 111.77,-194.01 117.93,-203.15"/>
<polygon fill="black" stroke="black" points="114.95,-204.99 123.44,-211.33 120.75,-201.08 114.95,-204.99"/>
<text text-anchor="middle" x="99.73" y="-192.69" font-family="Times New Roman,serif" font-size="14.00">qnr</text>
</g>
</g>
</svg>
