<?xml version="1.0" encoding="UTF-8" standalone="no"?>
<!DOCTYPE svg PUBLIC "-//W3C//DTD SVG 1.1//EN"
 "http://www.w3.org/Graphics/SVG/1.1/DTD/svg11.dtd">
<!-- Generated by graphviz version 12.2.1 (20241206.2353)
 -->
<!-- Pages: 1 -->
<svg width="660pt" height="645pt"
 viewBox="0.00 0.00 660.13 645.13" xmlns="http://www.w3.org/2000/svg" xmlns:xlink="http://www.w3.org/1999/xlink">
<g id="graph0" class="graph" transform="scale(1 1) rotate(0) translate(4 641.13)">
<polygon fill="white" stroke="none" points="-4,4 -4,-641.13 656.13,-641.13 656.13,4 -4,4"/>
<!-- jqt -->
<g id="node1" class="node">
<title>jqt</title>
<ellipse fill="none" stroke="black" cx="625.13" cy="-318.56" rx="27" ry="18"/>
<text text-anchor="middle" x="625.13" y="-313.51" font-family="Times New Roman,serif" font-size="14.00">jqt</text>
</g>
<!-- rhn -->
<g id="node2" class="node">
<title>rhn</title>
<ellipse fill="none" stroke="black" cx="599" cy="-441.49" rx="27" ry="18"/>
<text text-anchor="middle" x="599" y="-436.44" font-family="Times New Roman,serif" font-size="14.00">rhn</text>
</g>
<!-- jqt&#45;&gt;rhn -->
<g id="edge1" class="edge">
<title>jqt&#45;&gt;rhn</title>
<path fill="none" stroke="black" d="M621.27,-336.7C617.05,-356.58 610.21,-388.77 605.22,-412.23"/>
<polygon fill="black" stroke="black" points="601.84,-411.28 603.19,-421.79 608.69,-412.74 601.84,-411.28"/>
<text text-anchor="middle" x="604.25" y="-377.67" font-family="Times New Roman,serif" font-size="14.00">rhn</text>
</g>
<!-- xhk -->
<g id="node3" class="node">
<title>xhk</title>
<ellipse fill="none" stroke="black" cx="525.13" cy="-543.15" rx="27" ry="18"/>
<text text-anchor="middle" x="525.13" y="-538.1" font-family="Times New Roman,serif" font-size="14.00">xhk</text>
</g>
<!-- jqt&#45;&gt;xhk -->
<g id="edge2" class="edge">
<title>jqt&#45;&gt;xhk</title>
<path fill="none" stroke="black" d="M617.28,-336.19C599.98,-375.05 558.42,-468.4 537.54,-515.28"/>
<polygon fill="black" stroke="black" points="534.43,-513.67 533.56,-524.23 540.82,-516.52 534.43,-513.67"/>
<text text-anchor="middle" x="567.29" y="-412.43" font-family="Times New Roman,serif" font-size="14.00">xhk</text>
</g>
<!-- nvd -->
<g id="node4" class="node">
<title>nvd</title>
<ellipse fill="none" stroke="black" cx="27.3" cy="-381.4" rx="27" ry="18"/>
<text text-anchor="middle" x="27.3" y="-376.35" font-family="Times New Roman,serif" font-size="14.00">nvd</text>
</g>
<!-- jqt&#45;&gt;nvd -->
<g id="edge3" class="edge">
<title>jqt&#45;&gt;nvd</title>
<path fill="none" stroke="black" d="M598.28,-321.38C502.59,-331.44 177.99,-365.56 65.81,-377.35"/>
<polygon fill="black" stroke="black" points="65.5,-373.86 55.92,-378.39 66.23,-380.82 65.5,-373.86"/>
<text text-anchor="middle" x="321.92" y="-352.57" font-family="Times New Roman,serif" font-size="14.00">nvd</text>
</g>
<!-- rhn&#45;&gt;xhk -->
<g id="edge12" class="edge">
<title>rhn&#45;&gt;xhk</title>
<path fill="none" stroke="black" d="M587.13,-457.82C575.39,-473.98 557.26,-498.94 543.63,-517.7"/>
<polygon fill="black" stroke="black" points="540.91,-515.49 537.86,-525.64 546.57,-519.6 540.91,-515.49"/>
<text text-anchor="middle" x="555.26" y="-490.96" font-family="Times New Roman,serif" font-size="14.00">xhk</text>
</g>
<!-- hfx -->
<g id="node9" class="node">
<title>hfx</title>
<ellipse fill="none" stroke="black" cx="171.8" cy="-580.29" rx="27" ry="18"/>
<text text-anchor="middle" x="171.8" y="-575.24" font-family="Times New Roman,serif" font-size="14.00">hfx</text>
</g>
<!-- rhn&#45;&gt;hfx -->
<g id="edge14" class="edge">
<title>rhn&#45;&gt;hfx</title>
<path fill="none" stroke="black" d="M574.5,-449.45C502.54,-472.83 291.64,-541.35 207.28,-568.76"/>
<polygon fill="black" stroke="black" points="206.34,-565.39 197.91,-571.81 208.5,-572.05 206.34,-565.39"/>
<text text-anchor="middle" x="381.89" y="-512.31" font-family="Times New Roman,serif" font-size="14.00">hfx</text>
</g>
<!-- bvb -->
<g id="node13" class="node">
<title>bvb</title>
<ellipse fill="none" stroke="black" cx="291.32" cy="-619.13" rx="27" ry="18"/>
<text text-anchor="middle" x="291.32" y="-614.08" font-family="Times New Roman,serif" font-size="14.00">bvb</text>
</g>
<!-- rhn&#45;&gt;bvb -->
<g id="edge13" class="edge">
<title>rhn&#45;&gt;bvb</title>
<path fill="none" stroke="black" d="M578.33,-453.42C525.24,-484.07 383.86,-565.7 321.54,-601.68"/>
<polygon fill="black" stroke="black" points="320.12,-598.46 313.21,-606.49 323.62,-604.52 320.12,-598.46"/>
<text text-anchor="middle" x="439.81" y="-530.75" font-family="Times New Roman,serif" font-size="14.00">bvb</text>
</g>
<!-- xhk&#45;&gt;hfx -->
<g id="edge7" class="edge">
<title>xhk&#45;&gt;hfx</title>
<path fill="none" stroke="black" d="M498,-546.01C435.54,-552.57 281.51,-568.76 209.74,-576.3"/>
<polygon fill="black" stroke="black" points="209.63,-572.8 200.05,-577.32 210.37,-579.76 209.63,-572.8"/>
<text text-anchor="middle" x="344.87" y="-564.36" font-family="Times New Roman,serif" font-size="14.00">hfx</text>
</g>
<!-- lhk -->
<g id="node12" class="node">
<title>lhk</title>
<ellipse fill="none" stroke="black" cx="78.41" cy="-140.92" rx="27" ry="18"/>
<text text-anchor="middle" x="78.41" y="-135.87" font-family="Times New Roman,serif" font-size="14.00">lhk</text>
</g>
<!-- nvd&#45;&gt;lhk -->
<g id="edge25" class="edge">
<title>nvd&#45;&gt;lhk</title>
<path fill="none" stroke="black" d="M31.14,-363.32C39.91,-322.07 61.47,-220.64 72.17,-170.28"/>
<polygon fill="black" stroke="black" points="75.55,-171.2 74.21,-160.69 68.71,-169.74 75.55,-171.2"/>
<text text-anchor="middle" x="60.28" y="-270" font-family="Times New Roman,serif" font-size="14.00">lhk</text>
</g>
<!-- rsh -->
<g id="node5" class="node">
<title>rsh</title>
<ellipse fill="none" stroke="black" cx="525.13" cy="-93.97" rx="27" ry="18"/>
<text text-anchor="middle" x="525.13" y="-88.92" font-family="Times New Roman,serif" font-size="14.00">rsh</text>
</g>
<!-- frs -->
<g id="node6" class="node">
<title>frs</title>
<ellipse fill="none" stroke="black" cx="599" cy="-195.64" rx="27" ry="18"/>
<text text-anchor="middle" x="599" y="-190.59" font-family="Times New Roman,serif" font-size="14.00">frs</text>
</g>
<!-- rsh&#45;&gt;frs -->
<g id="edge4" class="edge">
<title>rsh&#45;&gt;frs</title>
<path fill="none" stroke="black" d="M537,-110.31C548.74,-126.46 566.87,-151.42 580.5,-170.18"/>
<polygon fill="black" stroke="black" points="577.56,-172.09 586.27,-178.12 583.23,-167.97 577.56,-172.09"/>
<text text-anchor="middle" x="551.63" y="-143.44" font-family="Times New Roman,serif" font-size="14.00">frs</text>
</g>
<!-- pzl -->
<g id="node7" class="node">
<title>pzl</title>
<ellipse fill="none" stroke="black" cx="78.41" cy="-496.2" rx="27" ry="18"/>
<text text-anchor="middle" x="78.41" y="-491.15" font-family="Times New Roman,serif" font-size="14.00">pzl</text>
</g>
<!-- rsh&#45;&gt;pzl -->
<g id="edge5" class="edge">
<title>rsh&#45;&gt;pzl</title>
<path fill="none" stroke="black" d="M508.7,-108.76C440.97,-169.75 183.14,-401.91 102.6,-474.42"/>
<polygon fill="black" stroke="black" points="100.73,-471.39 95.64,-480.69 105.42,-476.6 100.73,-471.39"/>
<text text-anchor="middle" x="297.4" y="-294.79" font-family="Times New Roman,serif" font-size="14.00">pzl</text>
</g>
<!-- lsr -->
<g id="node8" class="node">
<title>lsr</title>
<ellipse fill="none" stroke="black" cx="416.3" cy="-31.14" rx="27" ry="18"/>
<text text-anchor="middle" x="416.3" y="-26.09" font-family="Times New Roman,serif" font-size="14.00">lsr</text>
</g>
<!-- rsh&#45;&gt;lsr -->
<g id="edge6" class="edge">
<title>rsh&#45;&gt;lsr</title>
<path fill="none" stroke="black" d="M504.41,-82C488.14,-72.61 465.26,-59.4 446.89,-48.8"/>
<polygon fill="black" stroke="black" points="448.67,-45.78 438.26,-43.81 445.17,-51.85 448.67,-45.78"/>
<text text-anchor="middle" x="468.9" y="-68.6" font-family="Times New Roman,serif" font-size="14.00">lsr</text>
</g>
<!-- frs&#45;&gt;lsr -->
<g id="edge33" class="edge">
<title>frs&#45;&gt;lsr</title>
<path fill="none" stroke="black" d="M582.79,-181.04C550.77,-152.21 479.25,-87.81 441.21,-53.56"/>
<polygon fill="black" stroke="black" points="443.64,-51.04 433.87,-46.95 438.95,-56.24 443.64,-51.04"/>
<text text-anchor="middle" x="505.25" y="-120.5" font-family="Times New Roman,serif" font-size="14.00">lsr</text>
</g>
<!-- qnr -->
<g id="node11" class="node">
<title>qnr</title>
<ellipse fill="none" stroke="black" cx="171.8" cy="-56.83" rx="27" ry="18"/>
<text text-anchor="middle" x="171.8" y="-51.78" font-family="Times New Roman,serif" font-size="14.00">qnr</text>
</g>
<!-- frs&#45;&gt;qnr -->
<g id="edge31" class="edge">
<title>frs&#45;&gt;qnr</title>
<path fill="none" stroke="black" d="M574.5,-187.68C502.54,-164.3 291.64,-95.77 207.28,-68.36"/>
<polygon fill="black" stroke="black" points="208.5,-65.08 197.91,-65.32 206.34,-71.74 208.5,-65.08"/>
<text text-anchor="middle" x="381.89" y="-131.22" font-family="Times New Roman,serif" font-size="14.00">qnr</text>
</g>
<!-- frs&#45;&gt;lhk -->
<g id="edge32" class="edge">
<title>frs&#45;&gt;lhk</title>
<path fill="none" stroke="black" d="M572.11,-192.81C486.08,-183.77 217.36,-155.53 116.85,-144.96"/>
<polygon fill="black" stroke="black" points="117.27,-141.49 106.96,-143.92 116.54,-148.45 117.27,-141.49"/>
<text text-anchor="middle" x="335.86" y="-172.09" font-family="Times New Roman,serif" font-size="14.00">lhk</text>
</g>
<!-- pzl&#45;&gt;nvd -->
<g id="edge19" class="edge">
<title>pzl&#45;&gt;nvd</title>
<path fill="none" stroke="black" d="M70.65,-478.77C62.43,-460.31 49.34,-430.9 39.69,-409.23"/>
<polygon fill="black" stroke="black" points="43.01,-408.09 35.75,-400.38 36.62,-410.94 43.01,-408.09"/>
<text text-anchor="middle" x="45.04" y="-447.2" font-family="Times New Roman,serif" font-size="14.00">nvd</text>
</g>
<!-- pzl&#45;&gt;lsr -->
<g id="edge17" class="edge">
<title>pzl&#45;&gt;lsr</title>
<path fill="none" stroke="black" d="M90.44,-479.65C140.99,-410.08 336.45,-141.04 397.78,-56.62"/>
<polygon fill="black" stroke="black" points="400.48,-58.86 403.53,-48.71 394.82,-54.75 400.48,-58.86"/>
<text text-anchor="middle" x="237.36" y="-271.34" font-family="Times New Roman,serif" font-size="14.00">lsr</text>
</g>
<!-- pzl&#45;&gt;hfx -->
<g id="edge18" class="edge">
<title>pzl&#45;&gt;hfx</title>
<path fill="none" stroke="black" d="M94.68,-510.85C109.19,-523.91 130.63,-543.22 147.23,-558.17"/>
<polygon fill="black" stroke="black" points="144.51,-560.43 154.28,-564.52 149.19,-555.22 144.51,-560.43"/>
<text text-anchor="middle" x="111.96" y="-537.71" font-family="Times New Roman,serif" font-size="14.00">hfx</text>
</g>
<!-- lsr&#45;&gt;lhk -->
<g id="edge26" class="edge">
<title>lsr&#45;&gt;lhk</title>
<path fill="none" stroke="black" d="M391.73,-39.12C332.6,-58.33 182.23,-107.19 113.57,-129.5"/>
<polygon fill="black" stroke="black" points="112.76,-126.08 104.33,-132.5 114.92,-132.74 112.76,-126.08"/>
<text text-anchor="middle" x="244.02" y="-87.51" font-family="Times New Roman,serif" font-size="14.00">lhk</text>
</g>
<!-- cmg -->
<g id="node10" class="node">
<title>cmg</title>
<ellipse fill="none" stroke="black" cx="27.3" cy="-255.73" rx="27.3" ry="18"/>
<text text-anchor="middle" x="27.3" y="-250.68" font-family="Times New Roman,serif" font-size="14.00">cmg</text>
</g>
<!-- cmg&#45;&gt;nvd -->
<g id="edge9" class="edge">
<title>cmg&#45;&gt;nvd</title>
<path fill="none" stroke="black" d="M27.3,-274C27.3,-294.38 27.3,-327.65 27.3,-351.77"/>
<polygon fill="black" stroke="black" points="23.8,-351.59 27.3,-361.59 30.8,-351.59 23.8,-351.59"/>
<text text-anchor="middle" x="17.17" y="-316.09" font-family="Times New Roman,serif" font-size="14.00">nvd</text>
</g>
<!-- cmg&#45;&gt;qnr -->
<g id="edge8" class="edge">
<title>cmg&#45;&gt;qnr</title>
<path fill="none" stroke="black" d="M39.37,-239.11C64.61,-204.37 123.13,-123.82 153.21,-82.42"/>
<polygon fill="black" stroke="black" points="155.93,-84.63 158.98,-74.49 150.27,-80.52 155.93,-84.63"/>
<text text-anchor="middle" x="87.29" y="-163.97" font-family="Times New Roman,serif" font-size="14.00">qnr</text>
</g>
<!-- cmg&#45;&gt;lhk -->
<g id="edge10" class="edge">
<title>cmg&#45;&gt;lhk</title>
<path fill="none" stroke="black" d="M35.06,-238.29C43.28,-219.83 56.37,-190.43 66.02,-168.76"/>
<polygon fill="black" stroke="black" points="69.09,-170.47 69.96,-159.91 62.69,-167.62 69.09,-170.47"/>
<text text-anchor="middle" x="41.91" y="-206.72" font-family="Times New Roman,serif" font-size="14.00">lhk</text>
</g>
<!-- cmg&#45;&gt;bvb -->
<g id="edge11" class="edge">
<title>cmg&#45;&gt;bvb</title>
<path fill="none" stroke="black" d="M39.33,-272.29C81.43,-330.24 222.34,-524.19 272.99,-593.9"/>
<polygon fill="black" stroke="black" points="269.92,-595.63 278.63,-601.66 275.58,-591.51 269.92,-595.63"/>
<text text-anchor="middle" x="146.03" y="-436.29" font-family="Times New Roman,serif" font-size="14.00">bvb</text>
</g>
<!-- qnr&#45;&gt;nvd -->
<g id="edge20" class="edge">
<title>qnr&#45;&gt;nvd</title>
<path fill="none" stroke="black" d="M164.03,-74.28C140.31,-127.56 68.7,-288.41 39.69,-353.56"/>
<polygon fill="black" stroke="black" points="36.59,-351.92 35.72,-362.48 42.98,-354.77 36.59,-351.92"/>
<text text-anchor="middle" x="91.74" y="-217.12" font-family="Times New Roman,serif" font-size="14.00">nvd</text>
</g>
<!-- bvb&#45;&gt;xhk -->
<g id="edge15" class="edge">
<title>bvb&#45;&gt;xhk</title>
<path fill="none" stroke="black" d="M315.9,-611.14C357.47,-597.63 441.81,-570.23 489.75,-554.65"/>
<polygon fill="black" stroke="black" points="490.66,-558.03 499.09,-551.62 488.5,-551.38 490.66,-558.03"/>
<text text-anchor="middle" x="392.7" y="-569.6" font-family="Times New Roman,serif" font-size="14.00">xhk</text>
</g>
<!-- bvb&#45;&gt;hfx -->
<g id="edge16" class="edge">
<title>bvb&#45;&gt;hfx</title>
<path fill="none" stroke="black" d="M266.85,-611.17C249.6,-605.57 226.26,-597.99 207.02,-591.73"/>
<polygon fill="black" stroke="black" points="208.28,-588.46 197.68,-588.7 206.11,-595.12 208.28,-588.46"/>
<text text-anchor="middle" x="227.93" y="-604.65" font-family="Times New Roman,serif" font-size="14.00">hfx</text>
</g>
<!-- ntq -->
<g id="node14" class="node">
<title>ntq</title>
<ellipse fill="none" stroke="black" cx="416.3" cy="-605.99" rx="27" ry="18"/>
<text text-anchor="middle" x="416.3" y="-600.94" font-family="Times New Roman,serif" font-size="14.00">ntq</text>
</g>
<!-- ntq&#45;&gt;jqt -->
<g id="edge21" class="edge">
<title>ntq&#45;&gt;jqt</title>
<path fill="none" stroke="black" d="M428.13,-589.71C462.79,-542 564.35,-402.21 606.48,-344.23"/>
<polygon fill="black" stroke="black" points="609.24,-346.39 612.28,-336.24 603.57,-342.27 609.24,-346.39"/>
<text text-anchor="middle" x="510.18" y="-470.17" font-family="Times New Roman,serif" font-size="14.00">jqt</text>
</g>
<!-- ntq&#45;&gt;xhk -->
<g id="edge24" class="edge">
<title>ntq&#45;&gt;xhk</title>
<path fill="none" stroke="black" d="M437.03,-594.02C453.29,-584.63 476.18,-571.42 494.54,-560.82"/>
<polygon fill="black" stroke="black" points="496.26,-563.86 503.17,-555.83 492.76,-557.8 496.26,-563.86"/>
<text text-anchor="middle" x="455.66" y="-580.62" font-family="Times New Roman,serif" font-size="14.00">xhk</text>
</g>
<!-- ntq&#45;&gt;hfx -->
<g id="edge22" class="edge">
<title>ntq&#45;&gt;hfx</title>
<path fill="none" stroke="black" d="M389.2,-603.14C345.58,-598.56 259.65,-589.52 209.88,-584.29"/>
<polygon fill="black" stroke="black" points="210.47,-580.84 200.16,-583.27 209.73,-587.8 210.47,-580.84"/>
<text text-anchor="middle" x="290.54" y="-580.42" font-family="Times New Roman,serif" font-size="14.00">hfx</text>
</g>
<!-- ntq&#45;&gt;bvb -->
<g id="edge23" class="edge">
<title>ntq&#45;&gt;bvb</title>
<path fill="none" stroke="black" d="M389.18,-608.84C371.82,-610.66 349.03,-613.06 329.81,-615.08"/>
<polygon fill="black" stroke="black" points="329.47,-611.6 319.89,-616.12 330.2,-618.56 329.47,-611.6"/>
<text text-anchor="middle" x="349.37" y="-615.16" font-family="Times New Roman,serif" font-size="14.00">bvb</text>
</g>
<!-- rzs -->
<g id="node15" class="node">
<title>rzs</title>
<ellipse fill="none" stroke="black" cx="291.32" cy="-18" rx="27" ry="18"/>
<text text-anchor="middle" x="291.32" y="-12.95" font-family="Times New Roman,serif" font-size="14.00">rzs</text>
</g>
<!-- rzs&#45;&gt;rsh -->
<g id="edge30" class="edge">
<title>rzs&#45;&gt;rsh</title>
<path fill="none" stroke="black" d="M315.9,-25.99C357.47,-39.49 441.81,-66.9 489.75,-82.47"/>
<polygon fill="black" stroke="black" points="488.5,-85.75 499.09,-85.51 490.66,-79.09 488.5,-85.75"/>
<text text-anchor="middle" x="394.57" y="-57.43" font-family="Times New Roman,serif" font-size="14.00">rsh</text>
</g>
<!-- rzs&#45;&gt;lsr -->
<g id="edge29" class="edge">
<title>rzs&#45;&gt;lsr</title>
<path fill="none" stroke="black" d="M318.44,-20.85C335.8,-22.67 358.59,-25.07 377.81,-27.09"/>
<polygon fill="black" stroke="black" points="377.42,-30.57 387.73,-28.13 378.15,-23.61 377.42,-30.57"/>
<text text-anchor="middle" x="341.37" y="-27.17" font-family="Times New Roman,serif" font-size="14.00">lsr</text>
</g>
<!-- rzs&#45;&gt;cmg -->
<g id="edge28" class="edge">
<title>rzs&#45;&gt;cmg</title>
<path fill="none" stroke="black" d="M275.2,-32.51C230.64,-72.63 105.57,-185.25 52.08,-233.42"/>
<polygon fill="black" stroke="black" points="49.75,-230.8 44.66,-240.09 54.44,-236 49.75,-230.8"/>
<text text-anchor="middle" x="151.64" y="-136.16" font-family="Times New Roman,serif" font-size="14.00">cmg</text>
</g>
<!-- rzs&#45;&gt;qnr -->
<g id="edge27" class="edge">
<title>rzs&#45;&gt;qnr</title>
<path fill="none" stroke="black" d="M266.85,-25.95C249.6,-31.55 226.26,-39.14 207.02,-45.39"/>
<polygon fill="black" stroke="black" points="206.11,-42.01 197.68,-48.42 208.28,-48.66 206.11,-42.01"/>
<text text-anchor="middle" x="227.93" y="-38.87" font-family="Times New Roman,serif" font-size="14.00">qnr</text>
</g>
</g>
</svg>
