<?xml version="1.0" encoding="UTF-8" standalone="no"?>
<!DOCTYPE svg PUBLIC "-//W3C//DTD SVG 1.1//EN"
 "http://www.w3.org/Graphics/SVG/1.1/DTD/svg11.dtd">
<!-- Generated by graphviz version 12.2.1 (20241206.2353)
 -->
<!-- Pages: 1 -->
<svg width="303pt" height="255pt"
 viewBox="0.00 0.00 302.92 255.13" xmlns="http://www.w3.org/2000/svg" xmlns:xlink="http://www.w3.org/1999/xlink">
<g id="graph0" class="graph" transform="scale(1 1) rotate(0) translate(4 251.13)">
<polygon fill="white" stroke="none" points="-4,4 -4,-251.13 298.92,-251.13 298.92,4 -4,4"/>
<!-- jqt -->
<g id="node1" class="node">
<title>jqt</title>
<ellipse fill="none" stroke="black" cx="59.84" cy="-128.27" rx="27" ry="18"/>
<text text-anchor="middle" x="59.84" y="-123.22" font-family="Times New Roman,serif" font-size="14.00">jqt</text>
</g>
<!-- rhn -->
<g id="node2" class="node">
<title>rhn</title>
<ellipse fill="none" stroke="black" cx="27" cy="-166.93" rx="27" ry="18"/>
<text text-anchor="middle" x="27" y="-161.88" font-family="Times New Roman,serif" font-size="14.00">rhn</text>
</g>
<!-- jqt&#45;&gt;rhn -->
<g id="edge1" class="edge">
<title>jqt&#45;&gt;rhn</title>
<path fill="none" stroke="black" d="M46.48,-144C46.36,-144.14 46.23,-144.29 46.11,-144.44"/>
<polygon fill="black" stroke="black" points="45.24,-140.05 41.43,-149.94 50.57,-144.59 45.24,-140.05"/>
<text text-anchor="middle" x="55.3" y="-147.42" font-family="Times New Roman,serif" font-size="14.00">rhn</text>
</g>
<!-- xhk -->
<g id="node3" class="node">
<title>xhk</title>
<ellipse fill="none" stroke="black" cx="50.71" cy="-205.61" rx="27" ry="18"/>
<text text-anchor="middle" x="50.71" y="-200.56" font-family="Times New Roman,serif" font-size="14.00">xhk</text>
</g>
<!-- jqt&#45;&gt;xhk -->
<g id="edge2" class="edge">
<title>jqt&#45;&gt;xhk</title>
<path fill="none" stroke="black" d="M57.68,-146.6C56.63,-155.46 55.35,-166.32 54.17,-176.29"/>
<polygon fill="black" stroke="black" points="50.73,-175.57 53.03,-185.91 57.68,-176.39 50.73,-175.57"/>
<text text-anchor="middle" x="66.05" y="-164.64" font-family="Times New Roman,serif" font-size="14.00">xhk</text>
</g>
<!-- nvd -->
<g id="node4" class="node">
<title>nvd</title>
<ellipse fill="none" stroke="black" cx="145.59" cy="-101.7" rx="27" ry="18"/>
<text text-anchor="middle" x="145.59" y="-96.65" font-family="Times New Roman,serif" font-size="14.00">nvd</text>
</g>
<!-- jqt&#45;&gt;nvd -->
<g id="edge3" class="edge">
<title>jqt&#45;&gt;nvd</title>
<path fill="none" stroke="black" d="M84.64,-120.59C92.55,-118.14 101.47,-115.37 109.99,-112.73"/>
<polygon fill="black" stroke="black" points="110.88,-116.12 119.4,-109.82 108.81,-109.43 110.88,-116.12"/>
<text text-anchor="middle" x="107.44" y="-119.86" font-family="Times New Roman,serif" font-size="14.00">nvd</text>
</g>
<!-- rhn&#45;&gt;xhk -->
<g id="edge12" class="edge">
<title>rhn&#45;&gt;xhk</title>
<path fill="none" stroke="black" d="M37.47,-184.01C37.53,-184.11 37.59,-184.21 37.65,-184.31"/>
<polygon fill="black" stroke="black" points="31.45,-180.9 39.66,-187.59 37.42,-177.24 31.45,-180.9"/>
<text text-anchor="middle" x="27.44" y="-187.36" font-family="Times New Roman,serif" font-size="14.00">xhk</text>
</g>
<!-- hfx -->
<g id="node9" class="node">
<title>hfx</title>
<ellipse fill="none" stroke="black" cx="128.97" cy="-206.14" rx="27" ry="18"/>
<text text-anchor="middle" x="128.97" y="-201.09" font-family="Times New Roman,serif" font-size="14.00">hfx</text>
</g>
<!-- rhn&#45;&gt;hfx -->
<g id="edge14" class="edge">
<title>rhn&#45;&gt;hfx</title>
<path fill="none" stroke="black" d="M50.65,-176.02C63.78,-181.07 80.34,-187.44 94.85,-193.02"/>
<polygon fill="black" stroke="black" points="93.45,-196.23 104.04,-196.55 95.96,-189.69 93.45,-196.23"/>
<text text-anchor="middle" x="81.75" y="-187.72" font-family="Times New Roman,serif" font-size="14.00">hfx</text>
</g>
<!-- bvb -->
<g id="node13" class="node">
<title>bvb</title>
<ellipse fill="none" stroke="black" cx="93.05" cy="-152.45" rx="27" ry="18"/>
<text text-anchor="middle" x="93.05" y="-147.4" font-family="Times New Roman,serif" font-size="14.00">bvb</text>
</g>
<!-- rhn&#45;&gt;bvb -->
<g id="edge13" class="edge">
<title>rhn&#45;&gt;bvb</title>
<path fill="none" stroke="black" d="M53.11,-161.21C54.11,-160.99 55.13,-160.76 56.16,-160.54"/>
<polygon fill="black" stroke="black" points="56.64,-164.02 65.66,-158.46 55.14,-157.18 56.64,-164.02"/>
<text text-anchor="middle" x="44.51" y="-164.07" font-family="Times New Roman,serif" font-size="14.00">bvb</text>
</g>
<!-- xhk&#45;&gt;hfx -->
<g id="edge7" class="edge">
<title>xhk&#45;&gt;hfx</title>
<path fill="none" stroke="black" d="M78.08,-205.8C81.99,-205.82 86.07,-205.85 90.15,-205.88"/>
<polygon fill="black" stroke="black" points="89.95,-209.38 99.97,-205.94 89.99,-202.38 89.95,-209.38"/>
<text text-anchor="middle" x="88.62" y="-192.54" font-family="Times New Roman,serif" font-size="14.00">hfx</text>
</g>
<!-- lhk -->
<g id="node12" class="node">
<title>lhk</title>
<ellipse fill="none" stroke="black" cx="196.62" cy="-39.03" rx="27" ry="18"/>
<text text-anchor="middle" x="196.62" y="-33.98" font-family="Times New Roman,serif" font-size="14.00">lhk</text>
</g>
<!-- nvd&#45;&gt;lhk -->
<g id="edge25" class="edge">
<title>nvd&#45;&gt;lhk</title>
<path fill="none" stroke="black" d="M158.73,-85.56C164.13,-78.93 170.5,-71.1 176.47,-63.78"/>
<polygon fill="black" stroke="black" points="179.14,-66.03 182.74,-56.07 173.71,-61.61 179.14,-66.03"/>
<text text-anchor="middle" x="158.97" y="-61.37" font-family="Times New Roman,serif" font-size="14.00">lhk</text>
</g>
<!-- rsh -->
<g id="node5" class="node">
<title>rsh</title>
<ellipse fill="none" stroke="black" cx="267.92" cy="-134.76" rx="27" ry="18"/>
<text text-anchor="middle" x="267.92" y="-129.71" font-family="Times New Roman,serif" font-size="14.00">rsh</text>
</g>
<!-- frs -->
<g id="node6" class="node">
<title>frs</title>
<ellipse fill="none" stroke="black" cx="263.81" cy="-34.03" rx="27" ry="18"/>
<text text-anchor="middle" x="263.81" y="-28.98" font-family="Times New Roman,serif" font-size="14.00">frs</text>
</g>
<!-- rsh&#45;&gt;frs -->
<g id="edge4" class="edge">
<title>rsh&#45;&gt;frs</title>
<path fill="none" stroke="black" d="M267.17,-116.29C266.57,-101.52 265.71,-80.54 265.01,-63.46"/>
<polygon fill="black" stroke="black" points="268.52,-63.75 264.62,-53.9 261.53,-64.04 268.52,-63.75"/>
<text text-anchor="middle" x="273.21" y="-76.58" font-family="Times New Roman,serif" font-size="14.00">frs</text>
</g>
<!-- pzl -->
<g id="node7" class="node">
<title>pzl</title>
<ellipse fill="none" stroke="black" cx="200.44" cy="-165.66" rx="27" ry="18"/>
<text text-anchor="middle" x="200.44" y="-160.61" font-family="Times New Roman,serif" font-size="14.00">pzl</text>
</g>
<!-- rsh&#45;&gt;pzl -->
<g id="edge5" class="edge">
<title>rsh&#45;&gt;pzl</title>
<path fill="none" stroke="black" d="M245.45,-145.05C241.51,-146.86 237.34,-148.77 233.18,-150.67"/>
<polygon fill="black" stroke="black" points="232.05,-147.34 224.42,-154.68 234.97,-153.7 232.05,-147.34"/>
<text text-anchor="middle" x="231.07" y="-134.56" font-family="Times New Roman,serif" font-size="14.00">pzl</text>
</g>
<!-- lsr -->
<g id="node8" class="node">
<title>lsr</title>
<ellipse fill="none" stroke="black" cx="258.28" cy="-95.57" rx="27" ry="18"/>
<text text-anchor="middle" x="258.28" y="-90.52" font-family="Times New Roman,serif" font-size="14.00">lsr</text>
</g>
<!-- rsh&#45;&gt;lsr -->
<g id="edge6" class="edge">
<title>rsh&#45;&gt;lsr</title>
<path fill="none" stroke="black" d="M263.44,-116.54C263.41,-116.42 263.38,-116.3 263.35,-116.18"/>
<polygon fill="black" stroke="black" points="268.88,-124 263.09,-115.13 262.09,-125.68 268.88,-124"/>
<text text-anchor="middle" x="270.15" y="-103.06" font-family="Times New Roman,serif" font-size="14.00">lsr</text>
</g>
<!-- frs&#45;&gt;lsr -->
<g id="edge33" class="edge">
<title>frs&#45;&gt;lsr</title>
<path fill="none" stroke="black" d="M262.15,-52.5C261.77,-56.75 261.35,-61.39 260.94,-65.99"/>
<polygon fill="black" stroke="black" points="257.48,-65.34 260.07,-75.61 264.45,-65.96 257.48,-65.34"/>
<text text-anchor="middle" x="254.79" y="-62.44" font-family="Times New Roman,serif" font-size="14.00">lsr</text>
</g>
<!-- qnr -->
<g id="node11" class="node">
<title>qnr</title>
<ellipse fill="none" stroke="black" cx="168.22" cy="-18" rx="27" ry="18"/>
<text text-anchor="middle" x="168.22" y="-12.95" font-family="Times New Roman,serif" font-size="14.00">qnr</text>
</g>
<!-- frs&#45;&gt;qnr -->
<g id="edge31" class="edge">
<title>frs&#45;&gt;qnr</title>
<path fill="none" stroke="black" d="M237.18,-29.57C227.45,-27.93 216.24,-26.05 205.73,-24.29"/>
<polygon fill="black" stroke="black" points="206.64,-20.89 196.2,-22.69 205.48,-27.8 206.64,-20.89"/>
<text text-anchor="middle" x="225.96" y="-13.63" font-family="Times New Roman,serif" font-size="14.00">qnr</text>
</g>
<!-- frs&#45;&gt;lhk -->
<g id="edge32" class="edge">
<title>frs&#45;&gt;lhk</title>
<path fill="none" stroke="black" d="M236.48,-36.06C235.95,-36.1 235.42,-36.14 234.89,-36.18"/>
<polygon fill="black" stroke="black" points="234.93,-32.67 225.21,-36.9 235.44,-39.65 234.93,-32.67"/>
<text text-anchor="middle" x="227.06" y="-39.32" font-family="Times New Roman,serif" font-size="14.00">lhk</text>
</g>
<!-- pzl&#45;&gt;nvd -->
<g id="edge19" class="edge">
<title>pzl&#45;&gt;nvd</title>
<path fill="none" stroke="black" d="M186.88,-149.85C180.7,-142.65 173.25,-133.96 166.39,-125.96"/>
<polygon fill="black" stroke="black" points="169.14,-123.79 159.98,-118.48 163.83,-128.35 169.14,-123.79"/>
<text text-anchor="middle" x="166.51" y="-124.6" font-family="Times New Roman,serif" font-size="14.00">nvd</text>
</g>
<!-- pzl&#45;&gt;lsr -->
<g id="edge17" class="edge">
<title>pzl&#45;&gt;lsr</title>
<path fill="none" stroke="black" d="M213.56,-149.76C220.81,-140.97 229.97,-129.88 238.1,-120.02"/>
<polygon fill="black" stroke="black" points="240.58,-122.52 244.24,-112.58 235.18,-118.06 240.58,-122.52"/>
<text text-anchor="middle" x="219.08" y="-121.59" font-family="Times New Roman,serif" font-size="14.00">lsr</text>
</g>
<!-- pzl&#45;&gt;hfx -->
<g id="edge18" class="edge">
<title>pzl&#45;&gt;hfx</title>
<path fill="none" stroke="black" d="M179.77,-177.37C173.45,-180.95 166.37,-184.96 159.54,-188.82"/>
<polygon fill="black" stroke="black" points="158.14,-185.6 151.16,-193.57 161.59,-191.69 158.14,-185.6"/>
<text text-anchor="middle" x="160.65" y="-169.8" font-family="Times New Roman,serif" font-size="14.00">hfx</text>
</g>
<!-- lsr&#45;&gt;lhk -->
<g id="edge26" class="edge">
<title>lsr&#45;&gt;lhk</title>
<path fill="none" stroke="black" d="M242.08,-80.71C235.51,-74.69 227.8,-67.62 220.6,-61.02"/>
<polygon fill="black" stroke="black" points="223.35,-58.79 213.61,-54.61 218.62,-63.95 223.35,-58.79"/>
<text text-anchor="middle" x="239.97" y="-57.57" font-family="Times New Roman,serif" font-size="14.00">lhk</text>
</g>
<!-- cmg -->
<g id="node10" class="node">
<title>cmg</title>
<ellipse fill="none" stroke="black" cx="123.24" cy="-63.87" rx="27.3" ry="18"/>
<text text-anchor="middle" x="123.24" y="-58.82" font-family="Times New Roman,serif" font-size="14.00">cmg</text>
</g>
<!-- cmg&#45;&gt;nvd -->
<g id="edge9" class="edge">
<title>cmg&#45;&gt;nvd</title>
<path fill="none" stroke="black" d="M133.37,-81.01C133.46,-81.17 133.55,-81.32 133.65,-81.48"/>
<polygon fill="black" stroke="black" points="126.72,-76.64 134.82,-83.47 132.75,-73.08 126.72,-76.64"/>
<text text-anchor="middle" x="123.38" y="-84.45" font-family="Times New Roman,serif" font-size="14.00">nvd</text>
</g>
<!-- cmg&#45;&gt;qnr -->
<g id="edge8" class="edge">
<title>cmg&#45;&gt;qnr</title>
<path fill="none" stroke="black" d="M138.22,-48.59C140.47,-46.3 142.84,-43.88 145.21,-41.46"/>
<polygon fill="black" stroke="black" points="147.6,-44.03 152.1,-34.44 142.6,-39.13 147.6,-44.03"/>
<text text-anchor="middle" x="132.72" y="-31.73" font-family="Times New Roman,serif" font-size="14.00">qnr</text>
</g>
<!-- cmg&#45;&gt;lhk -->
<g id="edge10" class="edge">
<title>cmg&#45;&gt;lhk</title>
<path fill="none" stroke="black" d="M147.68,-55.6C152.13,-54.09 156.86,-52.49 161.55,-50.9"/>
<polygon fill="black" stroke="black" points="162.51,-54.27 170.86,-47.75 160.26,-47.64 162.51,-54.27"/>
<text text-anchor="middle" x="158.93" y="-39.95" font-family="Times New Roman,serif" font-size="14.00">lhk</text>
</g>
<!-- cmg&#45;&gt;bvb -->
<g id="edge11" class="edge">
<title>cmg&#45;&gt;bvb</title>
<path fill="none" stroke="black" d="M117.13,-81.79C113,-93.92 107.45,-110.19 102.73,-124.07"/>
<polygon fill="black" stroke="black" points="99.55,-122.53 99.64,-133.12 106.18,-124.78 99.55,-122.53"/>
<text text-anchor="middle" x="99.8" y="-89.63" font-family="Times New Roman,serif" font-size="14.00">bvb</text>
</g>
<!-- qnr&#45;&gt;nvd -->
<g id="edge20" class="edge">
<title>qnr&#45;&gt;nvd</title>
<path fill="none" stroke="black" d="M163.31,-36.16C160.43,-46.8 156.73,-60.49 153.46,-72.6"/>
<polygon fill="black" stroke="black" points="150.12,-71.55 150.89,-82.11 156.87,-73.37 150.12,-71.55"/>
<text text-anchor="middle" x="168.51" y="-57.58" font-family="Times New Roman,serif" font-size="14.00">nvd</text>
</g>
<!-- bvb&#45;&gt;xhk -->
<g id="edge15" class="edge">
<title>bvb&#45;&gt;xhk</title>
<path fill="none" stroke="black" d="M80.12,-168.69C77.08,-172.5 73.77,-176.65 70.51,-180.75"/>
<polygon fill="black" stroke="black" points="68,-178.29 64.51,-188.29 73.47,-182.65 68,-178.29"/>
<text text-anchor="middle" x="85.44" y="-177.92" font-family="Times New Roman,serif" font-size="14.00">xhk</text>
</g>
<!-- bvb&#45;&gt;hfx -->
<g id="edge16" class="edge">
<title>bvb&#45;&gt;hfx</title>
<path fill="none" stroke="black" d="M104.22,-169.14C106.5,-172.55 108.94,-176.2 111.38,-179.84"/>
<polygon fill="black" stroke="black" points="108.38,-181.65 116.85,-188.01 114.19,-177.76 108.38,-181.65"/>
<text text-anchor="middle" x="116.8" y="-177.69" font-family="Times New Roman,serif" font-size="14.00">hfx</text>
</g>
<!-- ntq -->
<g id="node14" class="node">
<title>ntq</title>
<ellipse fill="none" stroke="black" cx="86.87" cy="-229.13" rx="27" ry="18"/>
<text text-anchor="middle" x="86.87" y="-224.08" font-family="Times New Roman,serif" font-size="14.00">ntq</text>
</g>
<!-- ntq&#45;&gt;jqt -->
<g id="edge21" class="edge">
<title>ntq&#45;&gt;jqt</title>
<path fill="none" stroke="black" d="M82.04,-211.1C78,-196.04 72.17,-174.3 67.5,-156.87"/>
<polygon fill="black" stroke="black" points="70.99,-156.36 65.02,-147.61 64.23,-158.18 70.99,-156.36"/>
<text text-anchor="middle" x="78.33" y="-170.68" font-family="Times New Roman,serif" font-size="14.00">jqt</text>
</g>
<!-- ntq&#45;&gt;xhk -->
<g id="edge24" class="edge">
<title>ntq&#45;&gt;xhk</title>
<path fill="none" stroke="black" d="M67.52,-216.55C67.45,-216.5 67.38,-216.46 67.32,-216.42"/>
<polygon fill="black" stroke="black" points="78.68,-219.63 68.38,-217.11 74.86,-225.5 78.68,-219.63"/>
<text text-anchor="middle" x="57.29" y="-219.68" font-family="Times New Roman,serif" font-size="14.00">xhk</text>
</g>
<!-- ntq&#45;&gt;hfx -->
<g id="edge22" class="edge">
<title>ntq&#45;&gt;hfx</title>
<path fill="none" stroke="black" d="M107.92,-217.64C108.01,-217.59 108.09,-217.55 108.17,-217.5"/>
<polygon fill="black" stroke="black" points="99.99,-225.96 107.09,-218.09 96.63,-219.82 99.99,-225.96"/>
<text text-anchor="middle" x="117.05" y="-220.77" font-family="Times New Roman,serif" font-size="14.00">hfx</text>
</g>
<!-- ntq&#45;&gt;bvb -->
<g id="edge23" class="edge">
<title>ntq&#45;&gt;bvb</title>
<path fill="none" stroke="black" d="M88.34,-210.96C89.03,-202.33 89.88,-191.8 90.66,-182.06"/>
<polygon fill="black" stroke="black" points="94.14,-182.52 91.45,-172.27 87.16,-181.96 94.14,-182.52"/>
<text text-anchor="middle" x="99.63" y="-199.71" font-family="Times New Roman,serif" font-size="14.00">bvb</text>
</g>
<!-- rzs -->
<g id="node15" class="node">
<title>rzs</title>
<ellipse fill="none" stroke="black" cx="208.77" cy="-79.44" rx="27" ry="18"/>
<text text-anchor="middle" x="208.77" y="-74.39" font-family="Times New Roman,serif" font-size="14.00">rzs</text>
</g>
<!-- rzs&#45;&gt;rsh -->
<g id="edge30" class="edge">
<title>rzs&#45;&gt;rsh</title>
<path fill="none" stroke="black" d="M224.62,-94.26C230.59,-99.85 237.52,-106.32 244.05,-112.44"/>
<polygon fill="black" stroke="black" points="241.23,-114.59 250.92,-118.86 246.01,-109.48 241.23,-114.59"/>
<text text-anchor="middle" x="226.09" y="-106.55" font-family="Times New Roman,serif" font-size="14.00">rsh</text>
</g>
<!-- rzs&#45;&gt;lsr -->
<g id="edge29" class="edge">
<title>rzs&#45;&gt;lsr</title>
<path fill="none" stroke="black" d="M233.24,-87.41C233.33,-87.44 233.43,-87.47 233.53,-87.5"/>
<polygon fill="black" stroke="black" points="221.79,-87.36 232.38,-87.13 223.96,-80.7 221.79,-87.36"/>
<text text-anchor="middle" x="226.63" y="-90.66" font-family="Times New Roman,serif" font-size="14.00">lsr</text>
</g>
<!-- rzs&#45;&gt;cmg -->
<g id="edge28" class="edge">
<title>rzs&#45;&gt;cmg</title>
<path fill="none" stroke="black" d="M182.64,-74.68C175.81,-73.44 168.3,-72.07 161,-70.74"/>
<polygon fill="black" stroke="black" points="161.75,-67.32 151.29,-68.97 160.5,-74.21 161.75,-67.32"/>
<text text-anchor="middle" x="183.82" y="-75.91" font-family="Times New Roman,serif" font-size="14.00">cmg</text>
</g>
<!-- rzs&#45;&gt;qnr -->
<g id="edge27" class="edge">
<title>rzs&#45;&gt;qnr</title>
<path fill="none" stroke="black" d="M197.69,-62.65C193.94,-56.96 189.65,-50.46 185.53,-44.22"/>
<polygon fill="black" stroke="black" points="188.55,-42.45 180.12,-36.03 182.71,-46.31 188.55,-42.45"/>
<text text-anchor="middle" x="182.61" y="-56.63" font-family="Times New Roman,serif" font-size="14.00">qnr</text>
</g>
</g>
</svg>
